<svg xmlns="http://www.w3.org/2000/svg" fill="none" viewBox="0 0 44 44"><path fill="currentColor" d="M38 3.18h-.6a1.5 1.5 0 1 0 0 3h.6a1.32 1.32 0 0 1 1.32 1.31v6.66H4.72V7.49A1.32 1.32 0 0 1 6 6.18h.75a1.5 1.5 0 1 0 0-3H6a4.32 4.32 0 0 0-4.28 4.31v32.18A4.33 4.33 0 0 0 6 44h32a4.33 4.33 0 0 0 4.32-4.32V7.49A4.32 4.32 0 0 0 38 3.18M38 41H6a1.33 1.33 0 0 1-1.32-1.32V17.15h34.6v22.52A1.33 1.33 0 0 1 38 41"/><path fill="currentColor" d="M36.54 26.14a1.5 1.5 0 1 0 0-3h-3.72v-3.81a1.5 1.5 0 0 0-3 0v3.81h-6.27v-3.81a1.5 1.5 0 0 0-3 0v3.81h-6.27v-3.81a1.5 1.5 0 0 0-3 0v3.81H7.46a1.5 1.5 0 1 0 0 3h3.82v6H7.46a1.5 1.5 0 1 0 0 3h3.82V39a1.5 1.5 0 1 0 3 0v-3.87h6.27V39a1.5 1.5 0 1 0 3 0v-3.87h6.27V39a1.5 1.5 0 1 0 3 0v-3.87h3.72a1.5 1.5 0 1 0 0-3h-3.72v-6zm-22.26 6v-6h6.27v6zm15.54 0h-6.27v-6h6.27zM16.19 6.18H28a1.5 1.5 0 0 0 0-3H16.19a1.5 1.5 0 1 0 0 3M11.49 9.3c1.23 0 2.23-2.14 2.25-4.71S12.78 0 11.55 0 9.31 2.07 9.29 4.64s.97 4.65 2.2 4.66M32.66 9.3c1.23 0 2.23-2.14 2.25-4.71S34 0 32.72 0s-2.24 2.06-2.26 4.63.97 4.66 2.2 4.67"/></svg>