<?xml version="1.0" encoding="UTF-8"?>
<svg version="1.1" xmlns="http://www.w3.org/2000/svg" width="526" height="265">
<path d="M0 0 C0.78606628 -0.00671722 1.57213257 -0.01343445 2.38201904 -0.02035522 C4.9738197 -0.03931037 7.56536095 -0.04325847 10.15722656 -0.04541016 C11.96698105 -0.05184096 13.77673449 -0.05856953 15.58648682 -0.06558228 C19.37929696 -0.07754966 23.17201606 -0.08126377 26.96484375 -0.08007812 C31.80790946 -0.07987523 36.65038642 -0.10714904 41.49331284 -0.14162254 C45.23214357 -0.16394242 48.97083391 -0.16791407 52.70972443 -0.16685867 C54.4941841 -0.16920806 56.27864804 -0.17799404 58.06304169 -0.19352341 C76.88100422 -0.3419304 76.88100422 -0.3419304 83.04785156 4.29052734 C87.71973787 9.27980161 89.16084835 13.79272234 89.25317383 20.50610352 C89.28309166 22.42775581 89.28309166 22.42775581 89.31361389 24.38822937 C89.33059696 25.78665038 89.34747581 27.18507266 89.36425781 28.58349609 C89.38483323 30.01411024 89.40582986 31.4447184 89.42723083 32.87532043 C89.48239089 36.63832741 89.53182685 40.40138869 89.58007812 44.16448975 C89.63033749 48.0053795 89.68600039 51.84619051 89.74121094 55.68701172 C89.84871829 63.22145021 89.95017967 70.75595425 90.04785156 78.29052734 C91.03785156 77.96052734 92.02785156 77.63052734 93.04785156 77.29052734 C93.45003906 76.39333984 93.45003906 76.39333984 93.86035156 75.47802734 C95.64369175 72.192927 97.73937107 70.94476759 101.04785156 69.29052734 C104.42285156 70.04052734 104.42285156 70.04052734 107.04785156 71.29052734 C108.33664261 75.74410113 108.33664261 75.74410113 107.10644531 78.07177734 C105.11716498 80.18089384 103.11128729 82.25288456 101.04785156 84.29052734 C100.51546875 84.82935547 99.98308594 85.36818359 99.43457031 85.92333984 C97.63711251 87.73275413 95.81569558 89.5144211 93.98535156 91.29052734 C93.39616943 91.87898438 92.8069873 92.46744141 92.19995117 93.07373047 C89.45010729 95.67355496 87.72704721 97.13738387 83.98144531 97.98193359 C80.08371077 97.06329309 77.90333255 94.99754725 75.17285156 92.22802734 C74.12847577 91.20987087 73.08290004 90.19294378 72.03613281 89.17724609 C71.53033691 88.68015137 71.02454102 88.18305664 70.50341797 87.67089844 C68.55909862 85.82702363 66.4645432 84.1973413 64.36035156 82.54052734 C61.71255259 80.27646735 60.56766552 78.82538461 60.04785156 75.35302734 C60.04785156 74.34240234 60.04785156 73.33177734 60.04785156 72.29052734 C61.73535156 70.72802734 61.73535156 70.72802734 64.04785156 69.29052734 C68.46087953 69.58085813 70.39423469 71.1858178 73.36035156 74.35302734 C74.05773437 75.08650391 74.75511719 75.81998047 75.47363281 76.57568359 C75.993125 77.14158203 76.51261719 77.70748047 77.04785156 78.29052734 C77.14049228 70.1282183 77.21158568 61.96612853 77.25510025 53.80342388 C77.27598416 50.01321037 77.30431537 46.22335626 77.34960938 42.43334961 C77.39304014 38.7764056 77.41698262 35.11980748 77.42736053 31.4626255 C77.43475704 30.06671515 77.44920084 28.67082393 77.47077179 27.27506065 C77.49976273 25.32166345 77.50148509 23.3679189 77.50195312 21.41430664 C77.51527679 19.74551704 77.51527679 19.74551704 77.52886963 18.04301453 C77.27664929 15.25066432 77.27664929 15.25066432 75.49713135 13.43106079 C72.1388315 11.86723238 69.03577439 11.87956535 65.40527344 11.91821289 C64.25823692 11.91273689 64.25823692 11.91273689 63.08802795 11.90715027 C60.56399221 11.89905397 58.04060033 11.91264691 55.51660156 11.92724609 C53.7607015 11.92776481 52.00480085 11.92724666 50.24890137 11.92573547 C46.5703056 11.92582516 42.89192917 11.93624635 39.21337891 11.9543457 C34.49885605 11.97703271 29.78465366 11.97757653 25.07009125 11.97082806 C21.44469354 11.96748605 17.81936884 11.97412253 14.19398499 11.98395729 C12.45565676 11.98780558 10.71732041 11.98895904 8.97898865 11.98737144 C6.54931167 11.98700045 4.120045 11.99963043 1.69042969 12.01586914 C0.97238663 12.01339172 0.25434357 12.01091431 -0.48545837 12.00836182 C-4.10980056 12.04700777 -6.92932127 12.17751109 -9.95214844 14.29052734 C-11.38342052 17.15307151 -11.08481074 19.60434443 -11.09399414 22.80395508 C-11.09746857 23.47242462 -11.10094299 24.14089417 -11.10452271 24.82962036 C-11.11187971 26.28267521 -11.11722539 27.7357413 -11.12081337 29.18881035 C-11.12797174 31.48762542 -11.14363249 33.78622616 -11.16215515 36.0849762 C-11.21466082 42.62131852 -11.26262486 49.15754302 -11.27807617 55.6940918 C-11.28814384 59.6907167 -11.31743474 63.68680217 -11.35939598 67.68321419 C-11.37172697 69.20741768 -11.3768234 70.73169728 -11.37459755 72.25594902 C-11.37225085 74.38712249 -11.39435779 76.51674138 -11.42211914 78.64770508 C-11.42798538 79.86078842 -11.43385162 81.07387177 -11.43989563 82.32371521 C-11.95214844 85.29052734 -11.95214844 85.29052734 -13.82121277 87.21351624 C-15.95214844 88.29052734 -15.95214844 88.29052734 -18.57714844 88.16552734 C-20.95214844 87.29052734 -20.95214844 87.29052734 -22.95214844 84.29052734 C-23.21284485 81.40205383 -23.21284485 81.40205383 -23.22680664 77.8347168 C-23.23191757 77.18388626 -23.2370285 76.53305573 -23.24229431 75.86250305 C-23.2561995 73.70951141 -23.25523195 71.55683984 -23.25292969 69.40380859 C-23.25681809 67.90268333 -23.26115305 66.40155915 -23.26591492 64.9004364 C-23.27338054 61.75056397 -23.27308485 58.60080358 -23.26782227 55.45092773 C-23.26204809 51.43058472 -23.2789067 47.41070548 -23.30216694 43.39043903 C-23.31696637 40.28730116 -23.31776722 37.18427311 -23.31465721 34.08110619 C-23.315168 32.60005976 -23.32036 31.11900678 -23.33046913 29.63799477 C-23.43265554 12.56280857 -23.43265554 12.56280857 -18.30371094 6.26708984 C-17.73394531 5.82107422 -17.16417969 5.37505859 -16.57714844 4.91552734 C-16.01253906 4.45404297 -15.44792969 3.99255859 -14.86621094 3.51708984 C-10.03865803 0.42351512 -5.62738629 -0.00694282 0 0 Z " fill="#5EC744" transform="translate(59.9521484375,33.70947265625)"/>
<path d="M0 0 C3.19000737 1.63734892 5.41908507 3.6468068 8.0234375 6.109375 C11.22115787 9.09967567 14.41224915 12.05375497 17.7734375 14.859375 C20.6484375 17.359375 20.6484375 17.359375 21.6484375 19.359375 C21.8359375 22.359375 21.8359375 22.359375 21.6484375 25.359375 C19.6484375 27.359375 19.6484375 27.359375 17.0234375 27.984375 C12.36947702 27.12253047 10.49876573 24.6309566 7.3828125 21.20703125 C5.77114377 19.27653783 5.77114377 19.27653783 3.6484375 18.359375 C3.68648935 26.50478412 3.74584226 34.64964137 3.83234024 42.79466629 C3.87183756 46.57683285 3.90401461 50.35876583 3.91943359 54.14111328 C3.9345859 57.79185135 3.96900446 61.44194734 4.01674652 65.0923996 C4.03157534 66.48458015 4.03947938 67.87685237 4.04032135 69.26911163 C4.04268784 71.22020665 4.07203305 73.17121236 4.10253906 75.12207031 C4.11142151 76.2323761 4.12030396 77.34268188 4.12945557 78.4866333 C4.4647697 81.41578013 4.4647697 81.41578013 6.19915771 83.71784973 C9.54214977 85.95834752 12.4930553 85.9127837 16.3828125 85.86108398 C17.15725708 85.86648697 17.93170166 85.87188995 18.72961426 85.87745667 C21.28627898 85.88995088 23.84181908 85.87344914 26.3984375 85.85546875 C28.17675841 85.85562372 29.95507967 85.85711242 31.73339844 85.85987854 C35.45913639 85.86126284 39.18448952 85.84869946 42.91015625 85.82592773 C47.685317 85.79754292 52.45983833 85.80027996 57.23504639 85.81301785 C60.90679381 85.81997361 64.57839351 85.81218694 68.25012207 85.79976082 C70.01077711 85.79524531 71.77144801 85.79491039 73.53210449 85.79882622 C75.99308772 85.80173746 78.45319054 85.78523637 80.9140625 85.76342773 C81.6414563 85.76792938 82.3688501 85.77243103 83.11828613 85.77706909 C86.0774004 85.73350972 88.39162002 85.47519014 91.10168457 84.25305176 C93.40717039 81.43046463 93.14024017 79.26692674 93.13085938 75.65649414 C93.13672813 74.64134987 93.13672813 74.64134987 93.14271545 73.60569763 C93.14869012 72.13738499 93.14552087 70.66901315 93.1342926 69.20073128 C93.11705034 66.87603831 93.1245262 64.55259111 93.1385498 62.22789001 C93.1682227 56.45469623 93.15500805 50.68173924 93.14337158 44.9085083 C93.13517029 40.03040151 93.14309795 35.15283829 93.17250061 30.27480888 C93.17959891 27.98560217 93.16291189 25.69734981 93.14538574 23.40821838 C93.1510937 22.00269049 93.15791103 20.59716651 93.16601562 19.19165039 C93.16283325 17.96603897 93.15965088 16.74042755 93.15637207 15.47767639 C93.74056736 11.77553257 94.65539352 10.55469768 97.6484375 8.359375 C101.03998045 8.52087705 102.23140507 8.94234257 104.6484375 11.359375 C104.91586304 14.27944946 104.91586304 14.27944946 104.93896484 18.06884766 C104.94568207 18.75854645 104.95239929 19.44824524 104.95932007 20.15884399 C104.97836994 22.44711454 104.9822287 24.73509249 104.984375 27.0234375 C104.99080164 28.61567302 104.9975299 30.20790735 105.00454712 31.80014038 C105.01653983 35.14429457 105.02022626 38.48834535 105.01904297 41.83251953 C105.01884047 46.10297122 105.04606099 50.3727522 105.08058739 54.64304543 C105.10291579 57.93577062 105.10687859 61.22833648 105.10582352 64.52112961 C105.10817369 66.09429597 105.11696418 67.66746711 105.13248825 69.24055862 C105.26966187 84.58687276 105.26966187 84.58687276 100.6484375 91.359375 C95.49760488 96.25894749 91.179866 96.51342108 84.34082031 96.53637695 C83.49331207 96.54294815 82.64580383 96.54951935 81.77261353 96.55628967 C78.96559561 96.57601297 76.15863119 96.58768348 73.3515625 96.59765625 C71.91249668 96.60376954 71.91249668 96.60376954 70.44435883 96.61000633 C65.36590287 96.63086351 60.2874739 96.64516644 55.20898438 96.65454102 C49.96887993 96.66560123 44.72920062 96.69999775 39.48924637 96.73971272 C35.45541607 96.76588387 31.42168697 96.77423333 27.38777924 96.77782249 C25.45652141 96.7826876 23.52526808 96.79429941 21.59409332 96.81286049 C18.88693254 96.83726125 16.18087037 96.83628521 13.47363281 96.8293457 C12.68064789 96.84215576 11.88766296 96.85496582 11.07064819 96.86816406 C5.49219551 96.81622085 2.2623724 95.5187967 -2.3515625 92.359375 C-6.3512841 87.59047617 -7.47212665 82.30185547 -7.55688477 76.2355957 C-7.57682999 74.97451492 -7.59677521 73.71343414 -7.61732483 72.41413879 C-7.63430783 71.03781253 -7.65118669 69.66148498 -7.66796875 68.28515625 C-7.68854447 66.87696225 -7.7095411 65.46877435 -7.73094177 64.06059265 C-7.78609872 60.35677019 -7.83553604 56.65289259 -7.88378906 52.94897461 C-7.93405071 49.16840718 -7.98971242 45.38791971 -8.04492188 41.60742188 C-8.15242542 34.19147398 -8.25388764 26.77545955 -8.3515625 19.359375 C-9.1353125 20.14699219 -9.9190625 20.93460938 -10.7265625 21.74609375 C-16.12451856 27.11995179 -16.12451856 27.11995179 -19.9140625 27.859375 C-22.3515625 27.359375 -22.3515625 27.359375 -24.2890625 25.171875 C-25.3515625 22.359375 -25.3515625 22.359375 -24.66796875 19.953125 C-23.22193113 17.10395889 -21.63293506 15.27372947 -19.3515625 13.046875 C-18.6503125 12.34949219 -17.9490625 11.65210938 -17.2265625 10.93359375 C-15.3515625 9.359375 -15.3515625 9.359375 -13.3515625 9.359375 C-13.0215625 8.369375 -12.6915625 7.379375 -12.3515625 6.359375 C-10.828125 4.7890625 -10.828125 4.7890625 -8.9765625 3.234375 C-8.37070312 2.71617187 -7.76484375 2.19796875 -7.140625 1.6640625 C-4.60185044 -0.18735825 -3.07433786 -0.83752726 0 0 Z " fill="#26445E" transform="translate(44.3515625,129.640625)"/>
<path d="M0 0 C3.3 0 6.6 0 10 0 C10.66 0.66 11.32 1.32 12 2 C12.99 1.34 13.98 0.68 15 0 C19.18614674 -0.60362041 22.93436214 -0.41698873 26.875 1.125 C31.00049161 4.76513966 32.67845314 9.71032832 33.203125 15.078125 C33.34847225 21.81254754 32.38907852 27.25958641 27.875 32.4375 C24.04452161 34.51928173 20.35984164 35.23398077 16 35 C14.68 34.34 13.36 33.68 12 33 C11.67 51.81 11.34 70.62 11 90 C7.37 90 3.74 90 0 90 C0 60.3 0 30.6 0 0 Z M12.2734375 9.6875 C10.80792478 12.34879917 10.59736812 13.97891441 10.625 17 C10.61726563 17.845625 10.60953125 18.69125 10.6015625 19.5625 C11.0708858 22.43365432 12.10510899 23.83441027 14 26 C17.93075644 25.42547254 17.93075644 25.42547254 21 23 C22.15083675 18.01304075 22.07351881 14.69270045 20 10 C19.34 9.34 18.68 8.68 18 8 C14.0743895 7.53401962 14.0743895 7.53401962 12.2734375 9.6875 Z " fill="#27455E" transform="translate(343,101)"/>
<path d="M0 0 C1.37478516 0.01740234 1.37478516 0.01740234 2.77734375 0.03515625 C3.69644531 0.04417969 4.61554688 0.05320313 5.5625 0.0625 C6.27277344 0.07410156 6.98304688 0.08570313 7.71484375 0.09765625 C8.04484375 0.75765625 8.37484375 1.41765625 8.71484375 2.09765625 C9.37484375 1.43765625 10.03484375 0.77765625 10.71484375 0.09765625 C13.4032376 -0.17226281 16.00626311 0.01028268 18.71484375 0.09765625 C18.71484375 2.40765625 18.71484375 4.71765625 18.71484375 7.09765625 C19.47796875 6.31390625 20.24109375 5.53015625 21.02734375 4.72265625 C25.01082647 0.83181266 27.10692319 -0.19433407 32.58984375 -0.21484375 C34.13285156 -0.23998047 34.13285156 -0.23998047 35.70703125 -0.265625 C39.25868017 0.16334039 40.96120991 0.80607284 43.71484375 3.09765625 C47.53362988 9.26901344 47.06625962 15.45314998 46.90234375 22.53515625 C46.88204102 24.20481445 46.88204102 24.20481445 46.86132812 25.90820312 C46.82617372 28.63852837 46.77696481 31.36783369 46.71484375 34.09765625 C45.08993421 34.12463814 43.46489742 34.14404382 41.83984375 34.16015625 C40.93492187 34.17175781 40.03 34.18335938 39.09765625 34.1953125 C36.71484375 34.09765625 36.71484375 34.09765625 34.71484375 33.09765625 C33.63203125 33.59265625 33.63203125 33.59265625 32.52734375 34.09765625 C28.77693137 35.43113621 26.54570523 35.12377986 22.71484375 34.09765625 C19.05302193 31.44867876 17.87386828 30.08714222 17.15234375 25.59765625 C17.83579147 21.34509267 18.47820847 19.94897781 21.71484375 17.09765625 C26.41636556 14.70784616 30.40589401 13.09765625 35.71484375 13.09765625 C35.21984375 11.11765625 35.21984375 11.11765625 34.71484375 9.09765625 C29.93628909 8.60556937 29.93628909 8.60556937 25.859375 10.6328125 C22.90928262 12.64790292 21.14231503 12.18106636 17.65234375 11.72265625 C13.11873895 11.11463526 13.11873895 11.11463526 8.71484375 12.09765625 C8.38484375 19.35765625 8.05484375 26.61765625 7.71484375 34.09765625 C4.41484375 34.09765625 1.11484375 34.09765625 -2.28515625 34.09765625 C-3.96189274 32.42091976 -3.41303442 30.36910549 -3.42410278 28.13110352 C-3.42207855 27.43944092 -3.42005432 26.74777832 -3.41796875 26.03515625 C-3.41892548 25.32866943 -3.4198822 24.62218262 -3.42086792 23.89428711 C-3.42154958 22.39794832 -3.4196963 20.90160658 -3.41552734 19.40527344 C-3.41017882 17.10735468 -3.41547276 14.80963139 -3.421875 12.51171875 C-3.42121422 11.06119748 -3.41993305 9.61067634 -3.41796875 8.16015625 C-3.41999298 7.46849365 -3.42201721 6.77683105 -3.42410278 6.06420898 C-3.39482886 0.14507816 -3.39482886 0.14507816 0 0 Z M28.90234375 22.09765625 C28.51046875 22.75765625 28.11859375 23.41765625 27.71484375 24.09765625 C28.37484375 24.75765625 29.03484375 25.41765625 29.71484375 26.09765625 C32.64937636 25.73083967 33.57921621 25.23328379 35.71484375 23.09765625 C35.71484375 22.10765625 35.71484375 21.11765625 35.71484375 20.09765625 C31.80276939 19.6337416 31.80276939 19.6337416 28.90234375 22.09765625 Z " fill="#25445C" transform="translate(256.28515625,156.90234375)"/>
<path d="M0 0 C10 0 10 0 12 1 C12.66 0.67 13.32 0.34 14 0 C19.4157076 -0.35512837 22.51066735 -0.36699949 27 3 C27.495 2.505 27.99 2.01 28.5 1.5 C31.94949499 -0.56969699 35.12357161 -0.70760201 39 0 C42.44312714 2.1244827 43.71617547 3.14852641 45 7 C45.08315752 9.06498892 45.10735878 11.1325789 45.09765625 13.19921875 C45.09443359 14.40771484 45.09121094 15.61621094 45.08789062 16.86132812 C45.07532227 18.7552832 45.07532227 18.7552832 45.0625 20.6875 C45.05798828 21.96173828 45.05347656 23.23597656 45.04882812 24.54882812 C45.03702873 27.69926564 45.02056597 30.84960949 45 34 C41.37 34 37.74 34 34 34 C33.67 26.08 33.34 18.16 33 10 C31.68 9.67 30.36 9.34 29 9 C28.67 17.25 28.34 25.5 28 34 C24.37 34 20.74 34 17 34 C16.93941406 32.36289063 16.87882812 30.72578125 16.81640625 29.0390625 C16.73201032 26.9010322 16.64736185 24.76301186 16.5625 22.625 C16.52318359 21.54476562 16.48386719 20.46453125 16.44335938 19.3515625 C16.40146484 18.3203125 16.35957031 17.2890625 16.31640625 16.2265625 C16.27974854 15.27346191 16.24309082 14.32036133 16.20532227 13.33837891 C16.14236535 10.97867651 16.14236535 10.97867651 15 9 C14.01 9 13.02 9 12 9 C11.67 17.25 11.34 25.5 11 34 C7.37 34 3.74 34 0 34 C0 22.78 0 11.56 0 0 Z " fill="#26455D" transform="translate(214,101)"/>
<path d="M0 0 C0 2.31 0 4.62 0 7 C1.7015625 6.9690625 1.7015625 6.9690625 3.4375 6.9375 C7 7 7 7 8 8 C8.04080783 9.99958364 8.04254356 12.00045254 8 14 C5.36 14 2.72 14 0 14 C0.495 22.91 0.495 22.91 1 32 C3.31 32 5.62 32 8 32 C8.66 33.32 9.32 34.64 10 36 C7.15056384 39.58477452 4.99510978 41.34712095 0.5 42 C-3.51546316 42.23384561 -5.89258455 41.73075903 -9 39 C-10.90908601 35.91975191 -11.2391611 33.61120988 -11.1953125 30.015625 C-11.18886719 29.08105469 -11.18242187 28.14648438 -11.17578125 27.18359375 C-11.15902344 26.21550781 -11.14226562 25.24742188 -11.125 24.25 C-11.11597656 23.26644531 -11.10695313 22.28289062 -11.09765625 21.26953125 C-11.07412785 18.84610593 -11.04125368 16.42317778 -11 14 C-12.65 14 -14.3 14 -16 14 C-16 15.32 -16 16.64 -16 18 C-18.97 18 -21.94 18 -25 18 C-25.33 25.59 -25.66 33.18 -26 41 C-29.63 41 -33.26 41 -37 41 C-37.02465288 36.31860746 -37.04283739 31.63725241 -37.05493164 26.95581055 C-37.05997157 25.36205386 -37.0668035 23.76830181 -37.07543945 22.17456055 C-37.08751999 19.88849747 -37.09323155 17.60249533 -37.09765625 15.31640625 C-37.10281754 14.59973282 -37.10797882 13.88305939 -37.11329651 13.14466858 C-37.11349263 11.42936328 -37.06192007 9.71418734 -37 8 C-36 7 -36 7 -33.71484375 6.90234375 C-32.34005859 6.91974609 -32.34005859 6.91974609 -30.9375 6.9375 C-30.01839844 6.94652344 -29.09929687 6.95554687 -28.15234375 6.96484375 C-27.44207031 6.97644531 -26.73179687 6.98804687 -26 7 C-25.67 7.66 -25.34 8.32 -25 9 C-24.34 8.34 -23.68 7.68 -23 7 C-20.1796875 6.8046875 -20.1796875 6.8046875 -16.875 6.875 C-15.77929688 6.89304687 -14.68359375 6.91109375 -13.5546875 6.9296875 C-12.71164062 6.95289062 -11.86859375 6.97609375 -11 7 C-11 5.35 -11 3.7 -11 2 C-7.17679443 0.57741188 -4.08718695 -0.24042276 0 0 Z " fill="#27455E" transform="translate(332,94)"/>
<path d="M0 0 C3.63 0 7.26 0 11 0 C11 14.85 11 29.7 11 45 C7.7 45 4.4 45 1 45 C0.67 44.01 0.34 43.02 0 42 C-0.350625 42.474375 -0.70125 42.94875 -1.0625 43.4375 C-4.029487 45.83023145 -6.21315392 45.93792056 -10 46 C-14.59517512 44.70546373 -17.41220592 42.69065804 -20.5 39.0625 C-23.52802745 32.8449503 -22.93528579 24.909778 -20.875 18.5 C-18.55466091 15.40621454 -16.51642774 12.68905018 -13 11 C-8.93428308 10.45041 -4.73370826 10.13314587 -1 12 C-0.67 8.04 -0.34 4.08 0 0 Z M-8.73046875 20.16015625 C-10.46313236 22.67118567 -10.36591006 24.40956069 -10.3125 27.4375 C-10.30863281 28.38496094 -10.30476562 29.33242187 -10.30078125 30.30859375 C-9.99934156 33.00589177 -9.37375963 34.68485928 -8 37 C-5.62625139 37.33425735 -5.62625139 37.33425735 -3 37 C-0.19724389 34.09738322 0.41145899 31.98618302 0.375 28 C0.38273437 27.154375 0.39046875 26.30875 0.3984375 25.4375 C-0.08484592 22.48094262 -0.86158253 21.09003699 -3 19 C-6.79349369 18.62875885 -6.79349369 18.62875885 -8.73046875 20.16015625 Z " fill="#26445E" transform="translate(205,146)"/>
<path d="M0 0 C3.63 0 7.26 0 11 0 C11.33 3.96 11.66 7.92 12 12 C12.66 11.67 13.32 11.34 14 11 C19.14112877 10.4119624 24.31516132 9.82546269 28.5625 13.1875 C32.92368829 18.21964034 33.44740383 22.73092395 33.31640625 29.2109375 C32.6987212 34.65571685 30.47655671 38.39688129 26.8125 42.375 C21.3801665 45.51368158 16.09369215 46.52342304 10 45 C7.62610938 44.95907085 5.26390074 44.99963177 2.890625 45.0625 C1 45 1 45 0 44 C-0.0927833 42.61839885 -0.11747043 41.23211962 -0.11352539 39.84741211 C-0.11341209 38.52615578 -0.11341209 38.52615578 -0.11329651 37.1782074 C-0.10555458 35.74227989 -0.10555458 35.74227989 -0.09765625 34.27734375 C-0.0962413 33.30213272 -0.09482635 32.32692169 -0.09336853 31.32215881 C-0.08775133 28.19390857 -0.07519593 25.06572877 -0.0625 21.9375 C-0.05748722 19.82226666 -0.05292393 17.70703219 -0.04882812 15.59179688 C-0.03777631 10.39450393 -0.02050016 5.19726392 0 0 Z M21 17 C15.6214792 19.97535193 11.08604346 24.08954352 9 30 C8.9222654 32.33203812 8.91032272 34.66839059 9 37 C11.93028834 38.35235641 11.93028834 38.35235641 14.375 36.9375 C18.46780814 33.9166178 22.3634122 29.90976339 24 25 C24.0777346 22.66796188 24.08967728 20.33160941 24 18 C23.01 17.67 22.02 17.34 21 17 Z " fill="#27455D" transform="translate(307,146)"/>
<path d="M0 0 C3.63 0 7.26 0 11 0 C11.33 4.29 11.66 8.58 12 13 C12.99 12.34 13.98 11.68 15 11 C19.59271203 10.26034975 23.02462089 10.39038806 27 12.875 C30.31379296 16.39590502 30.11907606 18.56511578 30.09765625 23.3203125 C30.09443359 24.57714844 30.09121094 25.83398438 30.08789062 27.12890625 C30.07951172 28.44761719 30.07113281 29.76632813 30.0625 31.125 C30.05748489 32.46484211 30.05292201 33.804686 30.04882812 35.14453125 C30.03701086 38.42973206 30.02053617 41.71484397 30 45 C26.37 45 22.74 45 19 45 C18.505 33.12 18.505 33.12 18 21 C16.68 20.67 15.36 20.34 14 20 C11.43863779 22.56136221 11.70333143 23.66561331 11.5859375 27.2265625 C11.52792969 28.7734375 11.52792969 28.7734375 11.46875 30.3515625 C11.4378125 31.43179688 11.406875 32.51203125 11.375 33.625 C11.31699219 35.25695312 11.31699219 35.25695312 11.2578125 36.921875 C11.16334154 39.61429745 11.08057419 42.30712584 11 45 C7.37 45 3.74 45 0 45 C0 30.15 0 15.3 0 0 Z " fill="#28455D" transform="translate(379,90)"/>
<path d="M0 0 C3.63 0 7.26 0 11 0 C11.33 8.58 11.66 17.16 12 26 C13.98 25.67 15.96 25.34 18 25 C17.99214478 23.91730835 17.99214478 23.91730835 17.98413086 22.81274414 C17.96342642 19.56267151 17.95036082 16.31261272 17.9375 13.0625 C17.92912109 11.92619141 17.92074219 10.78988281 17.91210938 9.61914062 C17.90727539 7.99975586 17.90727539 7.99975586 17.90234375 6.34765625 C17.89448853 4.84730835 17.89448853 4.84730835 17.88647461 3.31665039 C18 1 18 1 19 0 C20.66429051 -0.09823937 22.33281931 -0.12973631 24 -0.125 C25.36125 -0.12886719 25.36125 -0.12886719 26.75 -0.1328125 C29 0 29 0 30 1 C30.1007812 3.36398468 30.13973215 5.69811311 30.1328125 8.0625 C30.13424759 9.12223022 30.13424759 9.12223022 30.13571167 10.20336914 C30.13639333 11.69970793 30.13454005 13.19604967 30.13037109 14.69238281 C30.12502257 16.99030157 30.13031651 19.28802486 30.13671875 21.5859375 C30.13605797 23.03645877 30.1347768 24.48697991 30.1328125 25.9375 C30.13483673 26.6291626 30.13686096 27.3208252 30.13894653 28.03344727 C30.11495224 32.88504776 30.11495224 32.88504776 29 34 C27.31391034 34.07205511 25.62499341 34.08386068 23.9375 34.0625 C23.01839844 34.05347656 22.09929687 34.04445312 21.15234375 34.03515625 C20.44207031 34.02355469 19.73179687 34.01195312 19 34 C18.67 33.34 18.34 32.68 18 32 C16.700625 32.7734375 16.700625 32.7734375 15.375 33.5625 C11.49685469 35.21430263 9.97422739 35.26837045 6 34 C1.42372881 30.84745763 1.42372881 30.84745763 0 28 C-0.08543895 25.89471067 -0.10714725 23.78668843 -0.09765625 21.6796875 C-0.09443359 20.42285156 -0.09121094 19.16601562 -0.08789062 17.87109375 C-0.07951172 16.55238281 -0.07113281 15.23367187 -0.0625 13.875 C-0.05748489 12.53515789 -0.05292201 11.195314 -0.04882812 9.85546875 C-0.03701086 6.57026794 -0.02053617 3.28515603 0 0 Z " fill="#254364" transform="translate(220,157)"/>
<path d="M0 0 C1.64574566 -0.02688151 3.29161413 -0.04634123 4.9375 -0.0625 C5.85402344 -0.07410156 6.77054687 -0.08570313 7.71484375 -0.09765625 C10 0 10 0 11 1 C11.15764405 2.77869726 11.25100677 4.56318476 11.31640625 6.34765625 C11.37924805 7.96704102 11.37924805 7.96704102 11.44335938 9.61914062 C11.48267578 10.75544922 11.52199219 11.89175781 11.5625 13.0625 C11.60568359 14.20267578 11.64886719 15.34285156 11.69335938 16.51757812 C11.79982839 19.34492195 11.90184207 22.17235738 12 25 C13.65 24.67 15.3 24.34 17 24 C17.33 16.08 17.66 8.16 18 0 C21.3 0 24.6 0 28 0 C29 1 29 1 29.11352539 4.14282227 C29.11336633 5.53402697 29.10767506 6.92523761 29.09765625 8.31640625 C29.0962413 9.04746078 29.09482635 9.77851532 29.09336853 10.53172302 C29.08775408 12.87535632 29.07519922 15.21889539 29.0625 17.5625 C29.05748686 19.14778508 29.05292363 20.73307166 29.04882812 22.31835938 C29.03777997 26.2122761 29.02050572 30.10612205 29 34 C24.66666667 34 20.33333333 34 16 34 C15.01 34.495 15.01 34.495 14 35 C6.91041162 35.5811138 6.91041162 35.5811138 3.0625 33.125 C-0.38431957 29.57373136 -0.11879977 27.32394673 -0.09765625 22.4609375 C-0.09443359 21.15898438 -0.09121094 19.85703125 -0.08789062 18.515625 C-0.07953466 17.13541601 -0.07106971 15.75520768 -0.0625 14.375 C-0.05748501 12.98698074 -0.0529221 11.59895978 -0.04882812 10.2109375 C-0.03700976 6.80724868 -0.02053434 3.40364561 0 0 Z " fill="#26445B" transform="translate(264,45)"/>
<path d="M0 0 C4.66666667 0 9.33333333 0 14 0 C14.76054687 -0.05800781 15.52109375 -0.11601563 16.3046875 -0.17578125 C23.29394813 -0.54755043 23.29394813 -0.54755043 27.0625 2.375 C29.96398646 6.30604617 30.12037429 8.23990257 30.09765625 13.1015625 C30.09443359 14.31328125 30.09121094 15.525 30.08789062 16.7734375 C30.07951172 18.04445313 30.07113281 19.31546875 30.0625 20.625 C30.05798828 21.90375 30.05347656 23.1825 30.04882812 24.5 C30.03701203 27.66671292 30.02053815 30.83333356 30 34 C26.37 34 22.74 34 19 34 C18.505 21.625 18.505 21.625 18 9 C13.36980013 9.4452998 13.36980013 9.4452998 12 11 C11.84259395 12.70563778 11.74906608 14.41727244 11.68359375 16.12890625 C11.64169922 17.16337891 11.59980469 18.19785156 11.55664062 19.26367188 C11.51732422 20.35228516 11.47800781 21.44089844 11.4375 22.5625 C11.39431641 23.65498047 11.35113281 24.74746094 11.30664062 25.87304688 C11.20018042 28.58186768 11.09955193 31.29091651 11 34 C7.37 34 3.74 34 0 34 C0 22.78 0 11.56 0 0 Z " fill="#27455D" transform="translate(371,45)"/>
<path d="M0 0 C3.86139658 2.75814041 6.12240045 5.50728495 7.125 10.23046875 C7.40938919 12.46647879 7.64872849 14.62079315 7.625 16.875 C6.625 17.875 6.625 17.875 4.76733398 17.98852539 C3.97657471 17.98328857 3.18581543 17.97805176 2.37109375 17.97265625 C1.51708984 17.96943359 0.66308594 17.96621094 -0.21679688 17.96289062 C-1.56354492 17.95032227 -1.56354492 17.95032227 -2.9375 17.9375 C-3.83919922 17.93298828 -4.74089844 17.92847656 -5.66992188 17.92382812 C-7.90501314 17.91200225 -10.13997437 17.8955222 -12.375 17.875 C-11.715 19.525 -11.055 21.175 -10.375 22.875 C-8.95876784 22.92947047 -7.54191809 22.96800508 -6.125 23 C-4.94164062 23.03480469 -4.94164062 23.03480469 -3.734375 23.0703125 C-1.1566426 22.85692406 0.36051554 22.06481387 2.625 20.875 C4.875 21.25 4.875 21.25 6.625 21.875 C6.42595656 26.15443406 5.90297034 27.59702966 2.8125 30.6875 C-2.07666699 34.04281068 -5.44527004 34.18709105 -11.375 33.875 C-15.93141781 32.57316634 -19.98186876 30.37264564 -22.35546875 26.1171875 C-24.9398581 19.92921299 -25.26934668 14.65218179 -23.1875 8.1875 C-18.01463477 -1.26635715 -9.94889595 -3.31629865 0 0 Z M-10.375 5.875 C-11.035 6.535 -11.695 7.195 -12.375 7.875 C-12.375 8.865 -12.375 9.855 -12.375 10.875 C-9.735 10.875 -7.095 10.875 -4.375 10.875 C-5.035 9.225 -5.695 7.575 -6.375 5.875 C-7.695 5.875 -9.015 5.875 -10.375 5.875 Z " fill="#27445D" transform="translate(505.375,102.125)"/>
<path d="M0 0 C3.90263667 2.92697751 5.96910212 6.28230637 7.5 10.875 C8.24175619 17.72104488 7.56094517 23.20277659 3.5 28.875 C-1.22255124 33.36718288 -4.99301114 34.13775665 -11.29296875 34.015625 C-16.17822388 33.70435211 -18.50903149 32.06813653 -21.6875 28.5 C-25.5625758 23.85808863 -26.9654528 20.28532337 -26.81640625 14.25390625 C-26.10679345 8.91866925 -23.77473573 5.05868318 -19.875 1.4375 C-13.9491779 -2.46106717 -6.65099929 -2.1378212 0 0 Z M-11.5 5.875 C-15.00170122 10.10622231 -14.82255867 14.02006592 -14.80078125 19.25390625 C-14.49215834 21.9433345 -13.94772105 23.60295379 -12.5 25.875 C-10.66666667 27.04166667 -10.66666667 27.04166667 -8.5 26.875 C-5.90893306 25.24632935 -4.75339305 23.82112224 -3.95703125 20.84765625 C-3.20376989 15.66344572 -3.72645928 11.77831847 -5.5 6.875 C-8.47 6.38 -8.47 6.38 -11.5 5.875 Z " fill="#26445D" transform="translate(360.5,46.125)"/>
<path d="M0 0 C3.55894355 2.62683929 5.99614732 4.75100204 7.625 8.9375 C8.4585473 15.17098417 8.61747551 20.80551556 5.9375 26.5625 C1.13763267 31.49209348 -1.85141435 33.59869369 -8.625 34.25 C-13.27777558 33.8622687 -16.57066545 32.63361535 -20.375 29.9375 C-25.01620102 24.22525259 -26.10050776 19.21895973 -25.375 11.9375 C-24.36886817 7.56439155 -23.11318236 4.6572278 -19.875 1.5 C-13.91592266 -2.22442334 -6.57251872 -2.06912626 0 0 Z M-11.375 5.9375 C-13.56406373 9.47301166 -13.64370816 12.38888074 -13.625 16.5 C-13.63015625 17.63566406 -13.6353125 18.77132812 -13.640625 19.94140625 C-13.60000727 23.11896426 -13.60000727 23.11896426 -11.375 25.9375 C-8.91827108 26.60435938 -8.91827108 26.60435938 -6.375 25.9375 C-3.44372526 22.90514683 -3.13923109 19.9933623 -3 15.9375 C-3.13923109 11.8816377 -3.44372526 8.96985317 -6.375 5.9375 C-9.00194422 5.51969121 -9.00194422 5.51969121 -11.375 5.9375 Z " fill="#27465E" transform="translate(437.375,102.0625)"/>
<path d="M0 0 C3.3 0 6.6 0 10 0 C10.33 0.66 10.66 1.32 11 2 C11.99 1.34 12.98 0.68 14 0 C16.33984375 -0.30078125 16.33984375 -0.30078125 18.9375 -0.3125 C19.79214844 -0.32925781 20.64679688 -0.34601563 21.52734375 -0.36328125 C24.59579095 0.08753327 25.83533713 0.77923355 28 3 C29.66711373 7.14578538 30.24120471 10.60314274 30.1953125 15.0546875 C30.18886719 16.16328125 30.18242187 17.271875 30.17578125 18.4140625 C30.15902344 19.55617188 30.14226562 20.69828125 30.125 21.875 C30.11597656 23.0403125 30.10695313 24.205625 30.09765625 25.40625 C30.07417533 28.27092205 30.038307 31.13548785 30 34 C26.37 34 22.74 34 19 34 C18.505 22.615 18.505 22.615 18 11 C16.68 10.34 15.36 9.68 14 9 C11.84280476 9.78652913 11.84280476 9.78652913 11.39477539 11.76464844 C10.97937626 14.11677855 10.7906611 16.3795527 10.68359375 18.765625 C10.64169922 19.65507813 10.59980469 20.54453125 10.55664062 21.4609375 C10.51732422 22.38132812 10.47800781 23.30171875 10.4375 24.25 C10.39431641 25.18585938 10.35113281 26.12171875 10.30664062 27.0859375 C10.20082061 29.39046222 10.09993083 31.69521239 10 34 C6.7 34 3.4 34 0 34 C0 22.78 0 11.56 0 0 Z " fill="#27455E" transform="translate(449,101)"/>
<path d="M0 0 C3.23932723 2.51047861 4.48588316 5.05506011 5.5 8.9375 C5.85033546 13.09224837 5.78391432 17.20940687 5.6875 21.375 C5.66719727 23.0446582 5.66719727 23.0446582 5.64648438 24.74804688 C5.6113338 27.47807496 5.55753357 30.20785189 5.5 32.9375 C1.87 32.9375 -1.76 32.9375 -5.5 32.9375 C-5.83 32.2775 -6.16 31.6175 -6.5 30.9375 C-7.015625 31.4325 -7.53125 31.9275 -8.0625 32.4375 C-11.43763128 34.51450386 -13.59800946 34.41669182 -17.5 33.9375 C-20.25329021 32.14187595 -22.02627461 30.88495078 -23.5 27.9375 C-24.00070446 23.59806135 -23.82164627 21.47703567 -21.5625 17.6875 C-18.28087735 14.1808518 -14.1193621 12.87955238 -9.5 11.9375 C-8.18 11.9375 -6.86 11.9375 -5.5 11.9375 C-7.10204619 9.75037195 -7.10204619 9.75037195 -9.5 7.9375 C-13.1985004 8.08544002 -14.85805573 8.29555573 -17.5 10.9375 C-20.125 11.0625 -20.125 11.0625 -22.5 10.9375 C-22.13166144 4.55296499 -22.13166144 4.55296499 -19.0625 1.5625 C-13.13568002 -2.1959712 -6.66303815 -2.02270801 0 0 Z M-12.5 20.9375 C-12.1814823 23.04570797 -12.1814823 23.04570797 -11.5 24.9375 C-9.85 24.6075 -8.2 24.2775 -6.5 23.9375 C-6.17 22.2875 -5.84 20.6375 -5.5 18.9375 C-9.45457848 18.58926193 -9.45457848 18.58926193 -12.5 20.9375 Z " fill="#26455E" transform="translate(285.5,102.0625)"/>
<path d="M0 0 C1.0209375 0.86625 1.0209375 0.86625 2.0625 1.75 C2.784375 2.348125 3.50625 2.94625 4.25 3.5625 C7.91043479 7.98026613 8.51994844 12.86553831 8.37890625 18.44140625 C7.65611083 23.71513579 5.31100233 27.56240022 1.5 31.1875 C-3.13310881 34.15744155 -7.58514383 34.39121405 -12.9375 33.75 C-18.48382865 31.76067355 -22.31988611 27.98522778 -24.9375 22.75 C-25.91769458 9.10267547 -25.91769458 9.10267547 -21.9375 3.75 C-15.88286802 -1.85053459 -7.70603523 -3.27916393 0 0 Z M-10.9375 5.75 C-14.4293303 9.49124675 -14.38606777 13.50618301 -14.2265625 18.37109375 C-13.84610395 21.50216479 -13.05495703 23.40567258 -10.9375 25.75 C-8.85216367 26.62822312 -8.85216367 26.62822312 -6.9375 26.75 C-3.77230698 23.33360119 -3.53092982 20.8381999 -3.5625 16.25 C-3.55476563 15.1259375 -3.54703125 14.001875 -3.5390625 12.84375 C-3.97112671 9.48889852 -4.46020229 8.03673635 -6.9375 5.75 C-8.2575 5.75 -9.5775 5.75 -10.9375 5.75 Z " fill="#27455E" transform="translate(236.9375,46.25)"/>
<path d="M0 0 C3.91343448 1.78507538 5.46602812 3.18983576 7.8125 6.75 C9.22787341 10.62365353 9.72112435 13.88658422 10 18 C9 19 9 19 7.14233398 19.11352539 C6.35157471 19.10828857 5.56081543 19.10305176 4.74609375 19.09765625 C3.89208984 19.09443359 3.03808594 19.09121094 2.15820312 19.08789062 C0.81145508 19.07532227 0.81145508 19.07532227 -0.5625 19.0625 C-1.46419922 19.05798828 -2.36589844 19.05347656 -3.29492188 19.04882812 C-5.53001314 19.03700225 -7.76497437 19.0205222 -10 19 C-6.61023596 22.91677642 -6.61023596 22.91677642 -1.875 24.4375 C1.19080542 24.17844932 1.19080542 24.17844932 4 22 C6.6875 22.375 6.6875 22.375 9 23 C8.70359143 26.45809994 8.03653935 27.95510879 5.8125 30.6875 C1.52630184 34.21170738 -1.39515946 35.05094732 -6.9375 34.875 C-11.36890547 34.13643242 -14.35521962 32.64425243 -18 30 C-20.74153672 25.57136376 -21.40904853 22.17537647 -21.375 17 C-21.38273437 15.824375 -21.39046875 14.64875 -21.3984375 13.4375 C-20.81564655 8.40949963 -19.17379677 5.14369942 -15.5625 1.625 C-10.35832447 -0.74883445 -5.62827157 -0.75661264 0 0 Z M-7 6 C-10.4260261 7.79819816 -10.4260261 7.79819816 -11 12 C-8.03 12 -5.06 12 -2 12 C-2.50980961 7.96621634 -2.50980961 7.96621634 -5.0625 6.75 C-5.701875 6.5025 -6.34125 6.255 -7 6 Z " fill="#254361" transform="translate(378,157)"/>
<path d="M0 0 C2.03005297 3.32190486 1.9776797 5.43302856 1.375 9.25 C-2.43860467 14.29741794 -6.58953102 15.77233737 -12.703125 16.734375 C-22.84238074 17.58347523 -31.06996249 17.07470639 -39.625 11.25 C-41.06930855 8.36138291 -41.00188506 6.45352299 -40.625 3.25 C-32.11058957 -8.56031124 -11.09931 -7.39954 0 0 Z " fill="#27455E" transform="translate(112.625,184.75)"/>
<path d="M0 0 C2.4375 1.6875 2.4375 1.6875 4.4375 4.6875 C4.0625 6.875 4.0625 6.875 3.4375 8.6875 C1.1275 9.0175 -1.1825 9.3475 -3.5625 9.6875 C-3.8925 8.6975 -4.2225 7.7075 -4.5625 6.6875 C-6.8725 6.3575 -9.1825 6.0275 -11.5625 5.6875 C-11.2325 6.6775 -10.9025 7.6675 -10.5625 8.6875 C-7.3228673 10.11097497 -4.01745487 11.18212159 -0.6640625 12.30859375 C2.57536493 13.7487926 3.78857972 14.5979441 5.4375 17.6875 C5.94632435 22.26691911 6.1161012 24.51299792 3.8125 28.5 C-0.01246407 32.02299322 -3.41095561 33.84289132 -8.625 34 C-15.15626491 33.48164564 -18.27368602 31.69111631 -22.5625 26.6875 C-22.8925 25.3675 -23.2225 24.0475 -23.5625 22.6875 C-20.5925 22.0275 -17.6225 21.3675 -14.5625 20.6875 C-14.19125 21.326875 -13.82 21.96625 -13.4375 22.625 C-10.98197207 25.32608072 -9.11671195 25.37157005 -5.5625 25.6875 C-5.8925 24.6975 -6.2225 23.7075 -6.5625 22.6875 C-8.72805171 21.80420229 -8.72805171 21.80420229 -11.3125 21.25 C-15.5408197 20.09462223 -18.44438349 18.90620091 -21.5625 15.6875 C-22.76440901 12.08177296 -22.88920315 9.4772565 -22.5625 5.6875 C-17.41886685 -2.57905327 -8.68073947 -3.19816717 0 0 Z " fill="#26445D" transform="translate(205.5625,102.3125)"/>
<path d="M0 0 C2.82348339 1.62149964 4.90439839 3.52069669 7 6 C6.67 7.32 6.34 8.64 6 10 C2.6875 10.6875 2.6875 10.6875 -1 11 C-2.625 9.625 -2.625 9.625 -4 8 C-6.60611077 7.27802838 -6.60611077 7.27802838 -9 7 C-9 8.32 -9 9.64 -9 11 C-8.02160156 11.14695312 -8.02160156 11.14695312 -7.0234375 11.296875 C-1.38000545 12.26241795 2.55094954 13.34949706 7 17 C8.60111899 20.20223797 8.49827144 23.52538714 8 27 C6.125 30 6.125 30 4 32 C3.34 32 2.68 32 2 32 C2 32.66 2 33.32 2 34 C-2.85292793 35.61764264 -8.2233387 35.9942405 -13.10546875 34.24609375 C-16.51763892 32.39086264 -18.98493689 30.31892747 -21 27 C-20.4375 25.0625 -20.4375 25.0625 -19 23 C-15.375 22.25 -15.375 22.25 -12 22 C-11.67 23.32 -11.34 24.64 -11 26 C-8.36 26.33 -5.72 26.66 -3 27 C-3.33 26.01 -3.66 25.02 -4 24 C-6.65833217 22.9291345 -6.65833217 22.9291345 -9.8125 22.125 C-13.52003837 20.95675069 -15.75241724 20.2081946 -18.75 17.6875 C-20.40702948 14.12488662 -20.54646055 11.89353144 -20 8 C-15.49884019 -0.5200525 -9.11956803 -1.42679031 0 0 Z " fill="#27445D" transform="translate(203,45)"/>
<path d="M0 0 C2.06771757 1.80925287 3.64965322 3.3493835 5 5.75 C4.67 6.74 4.34 7.73 4 8.75 C1.36 9.08 -1.28 9.41 -4 9.75 C-4.66 8.76 -5.32 7.77 -6 6.75 C-8.58380177 6.49969023 -8.58380177 6.49969023 -11 6.75 C-11 7.41 -11 8.07 -11 8.75 C-10.18015625 8.99234375 -9.3603125 9.2346875 -8.515625 9.484375 C-7.43796875 9.81953125 -6.3603125 10.1546875 -5.25 10.5 C-4.18265625 10.82484375 -3.1153125 11.1496875 -2.015625 11.484375 C1.18757943 12.82872505 2.83303203 14.06032078 5 16.75 C6.15338219 20.90217587 6.25367016 23.06509057 4.75 27.125 C3 29.75 3 29.75 0 30.75 C0 31.41 0 32.07 0 32.75 C-4.85292793 34.36764264 -10.2233387 34.7442405 -15.10546875 32.99609375 C-18.48817577 31.15688204 -21.14014573 29.14149896 -23 25.75 C-23 24.76 -23 23.77 -23 22.75 C-19.62902617 21.25178941 -17.79557881 20.75 -14 20.75 C-13.67 22.07 -13.34 23.39 -13 24.75 C-11.02 25.08 -9.04 25.41 -7 25.75 C-6.67 24.76 -6.34 23.77 -6 22.75 C-6.81984375 22.51925781 -7.6396875 22.28851563 -8.484375 22.05078125 C-17.18329466 19.41821346 -17.18329466 19.41821346 -20.75 16.5 C-22.43603006 12.79073387 -22.81039984 9.75337522 -22 5.75 C-17.18541662 -2.1596727 -8.30379133 -3.45991305 0 0 Z " fill="#26445D" transform="translate(426,46.25)"/>
<path d="M0 0 C2.28062828 3.42094242 2.21925007 4.68187222 2.125 8.6875 C2.10695313 9.68136719 2.08890625 10.67523438 2.0703125 11.69921875 C2.04710937 12.45847656 2.02390625 13.21773437 2 14 C-2.10379698 14.14489234 -6.20693967 14.23393542 -10.3125 14.3125 C-11.47974609 14.35439453 -12.64699219 14.39628906 -13.84960938 14.43945312 C-14.96787109 14.45556641 -16.08613281 14.47167969 -17.23828125 14.48828125 C-18.7857605 14.52755737 -18.7857605 14.52755737 -20.36450195 14.56762695 C-23 14 -23 14 -24.86010742 11.46948242 C-25.23627197 10.65455322 -25.61243652 9.83962402 -26 9 C-26.33 10.65 -26.66 12.3 -27 14 C-28.32 14 -29.64 14 -31 14 C-31.66 12.02 -32.32 10.04 -33 8 C-34.32 8 -35.64 8 -37 8 C-37 7.34 -37 6.68 -37 6 C-37.66 6 -38.32 6 -39 6 C-39 7.32 -39 8.64 -39 10 C-37.02 9.67 -35.04 9.34 -33 9 C-33.33 10.65 -33.66 12.3 -34 14 C-41.26 14 -48.52 14 -56 14 C-56.33 13.34 -56.66 12.68 -57 12 C-57.33 12.66 -57.66 13.32 -58 14 C-59.32 14 -60.64 14 -62 14 C-62 10.04 -62 6.08 -62 2 C-51.33333333 2 -40.66666667 2 -30 2 C-30 2.66 -30 3.32 -30 4 C-29.34 4 -28.68 4 -28 4 C-28 3.34 -28 2.68 -28 2 C-22.33333333 2 -16.66666667 2 -11 2 C-11 4.64 -11 7.28 -11 10 C-9.68 10 -8.36 10 -7 10 C-7 7.36 -7 4.72 -7 2 C-4.35261084 0.5393715 -3.10551666 0 0 0 Z M-21 6 C-21 7.32 -21 8.64 -21 10 C-19.02 9.67 -17.04 9.34 -15 9 C-15.33 8.34 -15.66 7.68 -16 7 C-18.52733235 6.34444881 -18.52733235 6.34444881 -21 6 Z M-53 9 C-52 11 -52 11 -52 11 Z " fill="#26455D" transform="translate(508,211)"/>
<path d="M0 0 C0.66 0.66 1.32 1.32 2 2 C3.155 2 4.31 2 5.5 2 C6.655 2 7.81 2 9 2 C9.66 2.66 10.32 3.32 11 4 C11.66 3.34 12.32 2.68 13 2 C15.625 2.375 15.625 2.375 18 3 C18.495 4.485 18.495 4.485 19 6 C19.33 4.68 19.66 3.36 20 2 C24.29 2 28.58 2 33 2 C33 1.34 33 0.68 33 0 C34.65 0 36.3 0 38 0 C38.95261487 4.76307437 39.08333357 9.1666528 39 14 C34.71 14 30.42 14 26 14 C25.505 13.01 25.505 13.01 25 12 C24.67 12.66 24.34 13.32 24 14 C21.36 14 18.72 14 16 14 C16 13.34 16 12.68 16 12 C15.34 12 14.68 12 14 12 C14 12.66 14 13.32 14 14 C12.35 14 10.7 14 9 14 C9 13.01 9 12.02 9 11 C7.68 11 6.36 11 5 11 C5 11.99 5 12.98 5 14 C-0.61 14 -6.22 14 -12 14 C-12.33 13.01 -12.66 12.02 -13 11 C-13.33 11.99 -13.66 12.98 -14 14 C-15.32 14 -16.64 14 -18 14 C-18.02687279 12.18757948 -18.04633715 10.37504767 -18.0625 8.5625 C-18.07410156 7.55316406 -18.08570313 6.54382813 -18.09765625 5.50390625 C-18 3 -18 3 -17 2 C-14.47633967 1.96834118 -11.96729895 2.06824712 -9.4453125 2.16015625 C-5.57613217 1.90674348 -4.19765825 0 0 0 Z M29 9 C30 11 30 11 30 11 Z " fill="#26455D" transform="translate(201,211)"/>
<path d="M0 0 C0 2.31 0 4.62 0 7 C1.134375 6.979375 2.26875 6.95875 3.4375 6.9375 C7 7 7 7 8 8 C8.04080783 9.99958364 8.04254356 12.00045254 8 14 C5.36 14 2.72 14 0 14 C0.33 19.94 0.66 25.88 1 32 C3.31 32 5.62 32 8 32 C8.33 33.65 8.66 35.3 9 37 C5.77738047 40.22261953 3.60677249 42.35871771 -1.0625 42.5625 C-5.37367078 41.94661846 -7.04328652 41.13590824 -10 38 C-10.98043964 35.05868109 -11.11621202 33.17498335 -11.09765625 30.11328125 C-11.09443359 29.17548828 -11.09121094 28.23769531 -11.08789062 27.27148438 C-11.07951172 26.29501953 -11.07113281 25.31855469 -11.0625 24.3125 C-11.05798828 23.32443359 -11.05347656 22.33636719 -11.04882812 21.31835938 C-11.03704303 18.87884526 -11.02059011 16.43945311 -11 14 C-12.65 14 -14.3 14 -16 14 C-16 12.02 -16 10.04 -16 8 C-14.35 7.67 -12.7 7.34 -11 7 C-11 5.35 -11 3.7 -11 2 C-7.12315913 0.80712589 -4.08378077 0 0 0 Z " fill="#27445D" transform="translate(310,38)"/>
<path d="M0 0 C3.63 0 7.26 0 11 0 C11 14.85 11 29.7 11 45 C7.37 45 3.74 45 0 45 C0 30.15 0 15.3 0 0 Z " fill="#27455F" transform="translate(248,34)"/>
<path d="M0 0 C2 2 2 2 2.125 5.4375 C2.08375 6.613125 2.0425 7.78875 2 9 C2 9.99 2 10.98 2 12 C2 23 2 34 2 45 C-1.63 45 -5.26 45 -9 45 C-8.99476318 43.97116699 -8.98952637 42.94233398 -8.98413086 41.88232422 C-8.96596188 38.04688393 -8.95452465 34.21144741 -8.94506836 30.37597656 C-8.94005527 28.71939452 -8.93324311 27.06281687 -8.92456055 25.40625 C-8.91236207 23.01821811 -8.90674133 20.63024498 -8.90234375 18.2421875 C-8.89718246 17.50757294 -8.89202118 16.77295837 -8.88670349 16.01608276 C-8.88625864 11.89175119 -9.3162686 8.05718303 -10 4 C-8.04987658 -1.55035126 -5.327875 -1.22097135 0 0 Z " fill="#27445E" transform="translate(330,34)"/>
<path d="M0 0 C28 0 28 0 30.5625 0.5625 C31.366875 0.706875 32.17125 0.85125 33 1 C33.33 0.67 33.66 0.34 34 0 C36.375 -0.3125 36.375 -0.3125 39 0 C40.8125 1.8125 40.8125 1.8125 42 4 C42 6.63664741 41.74776114 8.50746285 41 11 C40 12 40 12 36.5078125 12.09765625 C35.04684326 12.09097906 33.58589116 12.07901442 32.125 12.0625 C31.02478516 12.05573242 31.02478516 12.05573242 29.90234375 12.04882812 C27.93486849 12.03628502 25.96742914 12.0184063 24 12 C23.01 12 22.02 12 21 12 C20.01 12 19.02 12 18 12 C17.67 10.68 17.34 9.36 17 8 C15.68 8.33 14.36 8.66 13 9 C13 9.99 13 10.98 13 12 C8.71 12 4.42 12 0 12 C0 8.04 0 4.08 0 0 Z M27 6 C26.67 6.66 26.34 7.32 26 8 C26.66 8.66 27.32 9.32 28 10 C27.67 8.68 27.34 7.36 27 6 Z " fill="#24415A" transform="translate(262,213)"/>
<path d="M0 0 C0.72397476 0.00091141 1.44794952 0.00182281 2.19386292 0.00276184 C2.93858353 -0.00152328 3.68330414 -0.00580841 4.45059204 -0.01022339 C6.02670779 -0.01596972 7.60285007 -0.01646471 9.17897034 -0.01213074 C11.59129608 -0.00897356 14.00239229 -0.03241447 16.41456604 -0.05778503 C17.94516345 -0.06005828 19.47576416 -0.0607614 21.00636292 -0.05973816 C21.72831345 -0.06894791 22.45026398 -0.07815765 23.1940918 -0.08764648 C26.12771549 -0.06053627 28.17692415 -0.02455837 30.65309143 1.63484192 C31.66651917 3.30354309 31.66651917 3.30354309 31.54151917 6.36604309 C30.66651917 9.30354309 30.66651917 9.30354309 27.66651917 11.30354309 C24.43605042 11.56233215 24.43605042 11.56233215 20.47901917 11.56916809 C19.4306488 11.57203827 19.4306488 11.57203827 18.36109924 11.57496643 C16.88510274 11.57632592 15.40909418 11.57264591 13.93312073 11.56428528 C11.67470933 11.55358191 9.41709334 11.56418799 7.15870667 11.57698059 C5.72380908 11.57565895 4.28891198 11.57309647 2.85401917 11.56916809 C1.54819885 11.56691223 0.24237854 11.56465637 -1.10301208 11.56233215 C-4.33348083 11.30354309 -4.33348083 11.30354309 -7.33348083 9.30354309 C-7.64598083 5.80354309 -7.64598083 5.80354309 -7.33348083 2.30354309 C-4.85392302 -0.17601472 -3.38630145 0.04811394 0 0 Z " fill="#244057" transform="translate(81.33348083496094,55.69645690917969)"/>
<path d="M0 0 C32.7 0 32.7 0 38 1 C39.50662097 4.01324195 39.17770373 6.68286377 39 10 C37 12 37 12 33.5625 12.125 C32.386875 12.08375 31.21125 12.0425 30 12 C29.01 12 28.02 12 27 12 C20 12 13 12 6 12 C5.67 11.34 5.34 10.68 5 10 C4.67 10.66 4.34 11.32 4 12 C2.68 12 1.36 12 0 12 C0 8.04 0 4.08 0 0 Z M23 4 C23 5.32 23 6.64 23 8 C24.65 7.67 26.3 7.34 28 7 C27.67 6.34 27.34 5.68 27 5 C26.01 5.495 26.01 5.495 25 6 C25 5.34 25 4.68 25 4 C24.34 4 23.68 4 23 4 Z M33 4 C32.67 5.32 32.34 6.64 32 8 C32.99 8 33.98 8 35 8 C35 6.68 35 5.36 35 4 C34.34 4 33.68 4 33 4 Z M9 7 C10 9 10 9 10 9 Z " fill="#26455E" transform="translate(315,213)"/>
<path d="M0 0 C0.78846932 4.8293746 1 9.03237007 1 14 C-5.27 14 -11.54 14 -18 14 C-18 10.04 -18 6.08 -18 2 C-15.525 2.495 -15.525 2.495 -13 3 C-10.31685296 2.67278695 -8.34046844 2.17539283 -5.9375 0.9375 C-4 0 -4 0 0 0 Z " fill="#233C54" transform="translate(433,211)"/>
<path d="M0 0 C0.99 0.66 1.98 1.32 3 2 C3 1.34 3 0.68 3 0 C3.721875 0.185625 4.44375 0.37125 5.1875 0.5625 C8.37456241 1.22366086 8.37456241 1.22366086 13 0 C13 3.96 13 7.92 13 12 C10.66666667 12 8.33333333 12 6 12 C5.0925 12.02320313 4.185 12.04640625 3.25 12.0703125 C2.1775 12.08835938 1.105 12.10640625 0 12.125 C-1.0725 12.14820313 -2.145 12.17140625 -3.25 12.1953125 C-6 12 -6 12 -8 10 C-8.55416667 3.90416667 -8.55416667 3.90416667 -6.8125 1.0625 C-4.3648354 -0.37233787 -2.79523674 -0.34940459 0 0 Z M-4 4 C-4.33 4.99 -4.66 5.98 -5 7 C-3.68 7 -2.36 7 -1 7 C-1.33 6.01 -1.66 5.02 -2 4 C-2.66 4 -3.32 4 -4 4 Z " fill="#223F59" transform="translate(401,213)"/>
<path d="M0 0 C1.32 0 2.64 0 4 0 C4.33 0.66 4.66 1.32 5 2 C5.33 1.34 5.66 0.68 6 0 C7.77049689 -0.05410687 9.54146849 -0.09284119 11.3125 -0.125 C12.29863281 -0.14820313 13.28476562 -0.17140625 14.30078125 -0.1953125 C17 0 17 0 20 2 C20.36328125 3.875 20.36328125 3.875 20.3125 6 C20.30863281 6.70125 20.30476563 7.4025 20.30078125 8.125 C20 10 20 10 18 12 C15.03125 12.1953125 15.03125 12.1953125 11.5 12.125 C10.3346875 12.10695312 9.169375 12.08890625 7.96875 12.0703125 C6.9890625 12.04710937 6.009375 12.02390625 5 12 C4.34 12 3.68 12 3 12 C2.01 12 1.02 12 0 12 C0 8.04 0 4.08 0 0 Z M14 4 C14 5.32 14 6.64 14 8 C14.66 8 15.32 8 16 8 C16 6.68 16 5.36 16 4 C15.34 4 14.68 4 14 4 Z " fill="#26435C" transform="translate(355,213)"/>
<path d="M0 0 C5.28 0 10.56 0 16 0 C16 3.96 16 7.92 16 12 C14.68 12 13.36 12 12 12 C12 9.36 12 6.72 12 4 C11.34 4 10.68 4 10 4 C10 6.64 10 9.28 10 12 C8.68 12 7.36 12 6 12 C6 9.36 6 6.72 6 4 C5.34 4 4.68 4 4 4 C4 6.64 4 9.28 4 12 C2.68 12 1.36 12 0 12 C0 8.04 0 4.08 0 0 Z " fill="#24455B" transform="translate(376,213)"/>
<path d="M0 0 C3.625 0.125 3.625 0.125 6.625 1.125 C6.625 4.755 6.625 8.385 6.625 12.125 C4.975 12.125 3.325 12.125 1.625 12.125 C1.295 11.135 0.965 10.145 0.625 9.125 C0.295 10.115 -0.035 11.105 -0.375 12.125 C-1.695 12.125 -3.015 12.125 -4.375 12.125 C-4.40187279 10.31257948 -4.42133715 8.50004767 -4.4375 6.6875 C-4.44910156 5.67816406 -4.46070313 4.66882813 -4.47265625 3.62890625 C-4.32242958 -0.22290555 -3.96836764 0.14697658 0 0 Z " fill="#1E3E55" transform="translate(187.375,212.875)"/>
<path d="M0 0 C0.77112541 4.72314313 1.09764874 9.21521178 1 14 C-1.64 14 -4.28 14 -7 14 C-7.08082094 12.04233719 -7.13910778 10.08373272 -7.1875 8.125 C-7.22230469 7.03445312 -7.25710938 5.94390625 -7.29296875 4.8203125 C-7.19628906 3.88960937 -7.09960938 2.95890625 -7 2 C-4 0 -4 0 0 0 Z " fill="#294661" transform="translate(433,211)"/>
<path d="M0 0 C6.75 -0.125 6.75 -0.125 9 1 C9 4.63 9 8.26 9 12 C6.03 12 3.06 12 0 12 C0 8.04 0 4.08 0 0 Z " fill="#24455E" transform="translate(252,213)"/>
<path d="M0 0 C1.875 2.125 1.875 2.125 3 5 C2.58333333 10.41666667 2.58333333 10.41666667 1 12 C-2.4375 12.1875 -2.4375 12.1875 -6 12 C-8 10 -8 10 -8.3125 6.5625 C-8 3 -8 3 -6.8125 1.0625 C-4.28305066 -0.42028065 -2.87762613 -0.57552523 0 0 Z M-4 4 C-4.33 4.99 -4.66 5.98 -5 7 C-3.68 7 -2.36 7 -1 7 C-1.33 6.01 -1.66 5.02 -2 4 C-2.66 4 -3.32 4 -4 4 Z " fill="#254660" transform="translate(401,213)"/>
<path d="M0 0 C2.64 0 5.28 0 8 0 C8 3.96 8 7.92 8 12 C5.36 12 2.72 12 0 12 C0 8.04 0 4.08 0 0 Z " fill="#2A4660" transform="translate(262,213)"/>
<path d="M0 0 C1.32 0.33 2.64 0.66 4 1 C4 1.99 4 2.98 4 4 C2.68 4 1.36 4 0 4 C0 2.68 0 1.36 0 0 Z " fill="#263E58" transform="translate(438,218)"/>
<path d="M0 0 C1.32 0.33 2.64 0.66 4 1 C4 1.99 4 2.98 4 4 C2.68 4 1.36 4 0 4 C0 2.68 0 1.36 0 0 Z " fill="#243C64" transform="translate(307,218)"/>
<path d="M0 0 C1.32 0.33 2.64 0.66 4 1 C4 1.99 4 2.98 4 4 C2.68 4 1.36 4 0 4 C0 2.68 0 1.36 0 0 Z " fill="#215266" transform="translate(244,218)"/>
</svg>
