<?xml version="1.0" standalone="no"?>
<!DOCTYPE svg PUBLIC "-//W3C//DTD SVG 20010904//EN"
 "http://www.w3.org/TR/2001/REC-SVG-20010904/DTD/svg10.dtd">
<svg version="1.0" xmlns="http://www.w3.org/2000/svg"
 width="526.000000pt" height="265.000000pt" viewBox="0 0 526.000000 265.000000"
 preserveAspectRatio="xMidYMid meet">

<g transform="translate(0.000000,265.000000) scale(0.100000,-0.100000)"
fill="#000000" stroke="none">
<path d="M3219 2279 c-17 -33 3 -69 39 -69 33 0 52 16 52 45 0 29 -19 45 -52
45 -18 0 -31 -7 -39 -21z"/>
<path d="M2490 2080 l0 -210 45 0 45 0 0 210 0 210 -45 0 -45 0 0 -210z"/>
<path d="M3035 2251 c-23 -5 -31 -13 -35 -36 -4 -21 -12 -31 -28 -33 -30 -5
-30 -39 1 -44 21 -3 22 -8 27 -115 6 -122 16 -146 71 -158 39 -9 104 23 104
49 0 16 -7 20 -40 20 l-40 1 -3 103 -3 102 41 0 c33 0 40 3 40 19 0 16 -8 20
-37 23 -36 3 -38 5 -41 41 -3 38 -5 39 -57 28z"/>
<path d="M1892 2170 c-58 -35 -66 -110 -16 -149 13 -10 47 -24 74 -31 58 -14
79 -39 54 -64 -23 -24 -52 -19 -83 12 -24 23 -33 26 -55 19 -14 -5 -26 -14
-26 -21 0 -37 103 -85 154 -71 54 16 78 30 91 56 35 68 6 118 -85 145 -70 21
-89 37 -70 59 18 22 66 19 84 -6 11 -17 20 -20 45 -14 35 7 35 8 20 37 -25 46
-130 62 -187 28z"/>
<path d="M2210 2172 c-54 -27 -80 -74 -80 -145 0 -105 55 -161 157 -160 123 1
190 127 131 243 -39 74 -130 102 -208 62z m117 -58 c20 -31 23 -137 5 -171
-18 -33 -59 -40 -85 -15 -22 22 -35 109 -23 156 14 58 73 75 103 30z"/>
<path d="M3445 2176 c-87 -39 -118 -165 -61 -251 38 -57 141 -77 207 -39 102
59 100 232 -3 285 -43 22 -100 24 -143 5z m109 -58 c25 -35 22 -148 -5 -182
-25 -31 -49 -33 -75 -5 -15 17 -19 36 -19 99 0 50 5 83 14 93 20 25 67 21 85
-5z"/>
<path d="M3835 2165 c-23 -22 -25 -23 -25 -5 0 17 -7 20 -45 20 l-45 0 0 -155
0 -155 45 0 45 0 0 115 c0 111 1 115 25 131 23 15 27 15 50 0 24 -16 25 -20
25 -131 l0 -115 46 0 46 0 -4 136 c-3 135 -3 136 -31 160 -39 33 -99 33 -132
-1z"/>
<path d="M4114 2180 c-31 -12 -64 -59 -64 -91 0 -43 37 -77 105 -97 47 -14 61
-23 63 -39 4 -26 -29 -47 -58 -38 -11 3 -27 16 -37 29 -15 19 -23 21 -51 14
-32 -9 -33 -10 -19 -31 28 -43 65 -61 122 -61 127 0 181 124 80 181 -22 13
-50 23 -61 23 -12 0 -32 8 -45 19 -20 16 -21 21 -10 35 19 23 68 20 83 -4 14
-22 30 -25 59 -10 18 10 18 12 3 35 -26 39 -114 58 -170 35z"/>
<path d="M2641 2050 c4 -126 5 -130 32 -157 36 -37 95 -38 131 -4 26 24 26 24
26 3 0 -19 5 -22 45 -22 l45 0 0 155 0 155 -45 0 -45 0 0 -106 c0 -121 -8
-144 -50 -144 -42 0 -50 23 -50 144 l0 106 -46 0 -46 0 3 -130z"/>
<path d="M3220 2025 l0 -155 45 0 45 0 0 155 0 155 -45 0 -45 0 0 -155z"/>
<path d="M754 2066 c-3 -8 -4 -25 -2 -38 l3 -23 174 0 c155 0 175 2 185 18 8
12 8 22 0 35 -10 15 -32 17 -183 20 -142 2 -172 0 -177 -12z"/>
<path d="M3800 1525 l0 -215 45 0 45 0 0 110 c0 97 2 112 20 130 23 23 39 25
63 8 13 -11 17 -34 19 -128 l3 -115 43 -3 42 -3 0 130 c0 125 -1 131 -26 160
-35 42 -98 44 -138 5 l-26 -27 0 82 0 81 -45 0 -45 0 0 -215z"/>
<path d="M3255 1691 c-23 -5 -31 -12 -33 -33 -2 -19 -10 -28 -25 -30 -14 -2
-23 -11 -25 -25 -3 -19 1 -23 22 -23 l26 0 0 -99 c0 -55 4 -111 10 -126 14
-36 67 -57 113 -44 68 19 77 62 11 63 l-39 1 -3 103 -3 102 41 0 c37 0 41 2
38 23 -2 18 -10 23 -40 25 -36 3 -38 5 -38 38 0 36 -2 37 -55 25z"/>
<path d="M1905 1621 c-36 -15 -60 -51 -60 -91 0 -51 25 -77 94 -96 31 -9 63
-23 71 -31 13 -13 12 -17 -9 -34 -29 -23 -57 -18 -87 17 -18 21 -24 23 -47 15
-30 -12 -31 -14 -17 -42 20 -36 77 -55 154 -51 39 3 96 61 96 100 0 46 -34 80
-98 98 -70 20 -91 36 -72 58 18 23 67 20 82 -4 15 -23 17 -24 53 -10 22 8 24
13 15 30 -23 42 -117 64 -175 41z"/>
<path d="M2150 1470 l0 -160 45 0 45 0 0 118 c0 121 6 142 42 142 29 0 38 -34
38 -149 l0 -111 45 0 45 0 0 118 c0 121 6 142 42 142 29 0 38 -34 38 -149 l0
-111 46 0 46 0 -4 134 c-3 126 -4 136 -27 160 -33 35 -92 36 -125 3 l-23 -23
-27 23 c-34 29 -88 31 -115 4 -19 -19 -19 -19 -24 0 -4 15 -14 19 -46 19 l-41
0 0 -160z"/>
<path d="M2689 1607 c-41 -28 -66 -70 -44 -75 8 -2 27 6 41 17 32 25 71 27
102 5 36 -25 22 -43 -53 -69 -38 -12 -77 -33 -87 -45 -21 -26 -24 -79 -5 -103
29 -40 122 -37 152 5 l15 22 0 -27 c0 -25 3 -27 45 -27 l45 0 0 105 c0 165
-31 215 -133 215 -29 0 -55 -8 -78 -23z m121 -174 c0 -55 -67 -86 -90 -42 -14
26 0 46 44 58 46 13 46 13 46 -16z"/>
<path d="M2967 1623 c-4 -3 -7 -75 -7 -160 l0 -153 45 0 45 0 0 104 c0 117 7
131 66 129 34 -1 34 -1 34 43 0 40 -2 44 -24 44 -15 0 -34 -12 -50 -31 l-26
-31 0 31 c0 29 -2 31 -38 31 -21 0 -42 -3 -45 -7z"/>
<path d="M3440 1416 l0 -216 45 0 45 0 0 77 0 76 24 -22 c18 -17 36 -23 66
-23 55 1 88 24 112 80 36 82 7 201 -57 230 -43 20 -93 15 -120 -12 -24 -24
-24 -24 -27 -2 -2 17 -11 22 -45 24 l-43 3 0 -215z m197 127 c24 -36 22 -126
-2 -153 -24 -27 -70 -26 -89 2 -20 29 -21 110 -1 148 21 40 67 42 92 3z"/>
<path d="M4211 1612 c-58 -29 -76 -63 -76 -142 0 -54 4 -74 21 -97 68 -91 216
-86 264 8 27 51 26 133 0 177 -42 68 -135 92 -209 54z m125 -67 c41 -100 -10
-224 -76 -183 -25 16 -35 47 -34 114 0 67 23 104 65 104 25 0 32 -6 45 -35z"/>
<path d="M4497 1623 c-4 -3 -7 -75 -7 -160 l0 -153 44 0 44 0 4 116 c3 101 6
117 22 130 27 19 42 18 66 -6 18 -18 20 -33 20 -130 l0 -110 45 0 45 0 0 104
c0 127 -6 159 -36 191 -32 35 -91 35 -133 -1 l-31 -26 0 26 c0 23 -4 26 -38
26 -21 0 -42 -3 -45 -7z"/>
<path d="M4893 1610 c-44 -27 -66 -74 -66 -141 0 -67 23 -114 71 -142 64 -37
159 -19 196 39 23 34 7 53 -25 30 -52 -36 -143 -6 -151 49 -3 19 3 20 95 23
l97 3 0 30 c0 72 -61 129 -140 129 -27 0 -58 -8 -77 -20z m117 -49 c22 -42 14
-51 -45 -51 -60 0 -67 9 -39 48 20 28 69 30 84 3z"/>
<path d="M384 1319 c-71 -56 -184 -169 -184 -184 0 -7 10 -21 22 -29 26 -18
37 -13 106 49 l52 47 0 -331 c0 -376 2 -391 73 -442 l40 -29 437 0 c437 0 437
0 470 22 18 13 43 36 54 51 20 27 21 41 24 380 2 194 0 362 -2 373 -7 26 -39
36 -60 20 -13 -9 -16 -62 -18 -364 l-3 -354 -28 -24 -29 -25 -415 3 -415 3
-19 24 c-18 22 -19 43 -19 358 l0 335 64 -56 c65 -57 83 -65 104 -44 27 27 11
54 -81 139 -124 115 -126 116 -173 78z"/>
<path d="M2060 1104 l0 -75 -26 20 c-51 40 -139 19 -169 -40 -22 -42 -29 -116
-16 -166 25 -92 132 -126 192 -62 l29 31 0 -31 c0 -30 2 -31 40 -31 l40 0 0
215 0 215 -45 0 -45 0 0 -76z m-13 -124 c7 -14 13 -45 13 -70 0 -63 -18 -94
-56 -98 -47 -5 -69 27 -69 98 0 44 5 64 20 80 26 29 75 24 92 -10z"/>
<path d="M3084 1167 c-2 -7 -3 -102 -2 -212 l3 -200 38 -3 c22 -2 37 1 37 8 0
7 6 8 19 0 34 -17 96 -12 131 13 61 41 75 70 75 154 0 74 0 75 -39 110 -36 33
-42 35 -90 30 -28 -2 -59 -8 -68 -12 -16 -6 -18 0 -18 59 l0 66 -40 0 c-24 0
-43 -5 -46 -13z m236 -162 c28 -33 -38 -158 -100 -190 -48 -25 -70 -12 -70 39
0 98 123 207 170 151z"/>
<path d="M3440 965 l0 -215 45 0 45 0 0 215 0 215 -45 0 -45 0 0 -215z"/>
<path d="M2210 945 c0 -170 13 -195 101 -195 29 0 47 7 64 25 l25 24 0 -24 c0
-22 4 -25 40 -25 l40 0 0 161 0 160 -42 -3 -43 -3 -3 -114 c-3 -120 -10 -141
-46 -141 -40 0 -46 18 -46 142 l0 118 -45 0 -45 0 0 -125z"/>
<path d="M2550 910 l0 -160 40 0 40 0 0 105 c0 101 1 105 25 121 14 9 36 14
50 12 20 -4 25 -1 25 16 0 11 3 31 6 44 6 19 3 22 -24 22 -23 0 -37 -9 -56
-32 l-26 -33 0 33 c0 31 -2 32 -40 32 l-40 0 0 -160z"/>
<path d="M2813 1050 c-31 -18 -53 -48 -53 -69 0 -17 19 -13 47 9 32 25 74 26
104 2 29 -24 20 -47 -22 -56 -115 -23 -169 -95 -118 -160 29 -36 99 -37 134
-1 l25 24 0 -24 c0 -23 4 -25 45 -25 l45 0 0 113 c0 124 -15 172 -60 194 -38
19 -110 16 -147 -7z m117 -178 c0 -60 -82 -87 -88 -29 -3 23 2 30 30 42 48 21
58 19 58 -13z"/>
<path d="M3643 1050 c-44 -27 -67 -74 -67 -140 0 -101 55 -160 147 -160 56 0
97 19 121 56 23 34 7 53 -25 30 -38 -27 -96 -21 -130 13 -52 53 -42 61 71 61
l100 0 0 30 c0 73 -61 130 -140 130 -27 0 -58 -8 -77 -20z m115 -48 c6 -9 12
-24 12 -34 0 -15 -9 -18 -55 -18 -63 0 -71 15 -31 55 26 26 51 25 74 -3z"/>
<path d="M853 830 c-77 -16 -123 -49 -123 -90 0 -56 79 -93 195 -93 123 1 205
38 205 93 0 38 -36 67 -105 85 -64 16 -106 17 -172 5z"/>
<path d="M1963 503 c-8 -3 -13 -22 -13 -49 0 -43 1 -44 33 -43 27 1 29 2 9 7
-30 9 -33 26 -4 30 31 5 28 22 -5 22 -30 0 -21 15 12 22 l20 4 -20 5 c-11 3
-26 4 -32 2z"/>
<path d="M2962 501 c-21 -13 -10 -46 16 -49 12 -2 22 -10 22 -19 0 -11 -6 -14
-25 -9 -14 4 -25 2 -25 -4 0 -5 16 -10 35 -10 30 0 35 3 35 24 0 17 -7 26 -25
30 -14 4 -25 11 -25 17 0 7 10 9 25 5 27 -7 35 8 9 18 -20 8 -26 7 -42 -3z"/>
<path d="M3354 485 c-24 -37 -6 -75 35 -75 16 0 31 6 35 15 7 18 -5 20 -22 3
-18 -18 -46 13 -37 42 5 17 12 20 31 16 26 -7 33 8 8 18 -26 10 -33 7 -50 -19z"/>
<path d="M3456 494 c-19 -18 -21 -55 -4 -72 17 -17 65 -15 72 4 12 31 6 63
-13 74 -27 14 -37 13 -55 -6z m52 -36 c-3 -36 -24 -44 -41 -17 -14 23 -2 49
23 49 18 0 21 -5 18 -32z"/>
<path d="M3956 497 c-12 -9 -17 -23 -14 -47 3 -31 6 -35 35 -38 27 -3 35 1 44
22 10 20 9 30 -5 51 -18 28 -34 31 -60 12z m49 -28 c5 -14 1 -27 -10 -38 -15
-15 -17 -15 -30 2 -17 23 -8 57 15 57 10 0 22 -10 25 -21z"/>
<path d="M4283 503 c-8 -3 -13 -22 -13 -49 0 -43 1 -44 33 -43 27 1 29 2 9 7
-30 9 -33 26 -4 30 31 5 28 22 -5 22 -30 0 -21 15 12 22 l20 4 -20 5 c-11 3
-26 4 -32 2z"/>
<path d="M4676 497 c-12 -9 -17 -23 -14 -47 3 -30 7 -35 32 -38 16 -2 33 1 39
7 16 16 0 26 -17 12 -21 -18 -36 -5 -36 30 0 29 2 30 33 24 30 -6 31 -5 13 10
-24 18 -27 18 -50 2z"/>
<path d="M4858 499 c-18 -10 -23 -44 -12 -73 7 -18 59 -22 69 -5 11 17 -3 23
-20 9 -21 -17 -38 -1 -33 31 2 19 8 24 31 22 24 -2 27 0 17 13 -14 16 -28 17
-52 3z"/>
<path d="M5032 502 c-7 -2 -12 -22 -12 -48 l0 -44 38 1 c30 2 32 3 10 6 -32 5
-38 33 -8 33 11 0 20 5 20 10 0 6 -9 10 -20 10 -30 0 -24 18 8 22 l27 3 -25 6
c-14 3 -31 4 -38 1z"/>
<path d="M1850 455 c0 -25 5 -45 10 -45 6 0 10 9 10 20 0 11 4 20 9 20 5 0 13
-9 16 -20 11 -33 20 -23 22 25 1 45 1 45 -33 45 -34 0 -34 0 -34 -45z m53 20
c1 -5 -6 -11 -15 -13 -11 -2 -18 3 -18 13 0 17 30 18 33 0z"/>
<path d="M2041 453 c1 -26 3 -41 6 -32 2 9 18 19 34 23 25 5 30 10 27 28 -2
18 -11 24 -35 26 l-33 3 1 -48z m49 22 c0 -8 -6 -15 -14 -15 -17 0 -28 14 -19
24 12 12 33 6 33 -9z"/>
<path d="M2130 459 c-6 -23 -8 -44 -4 -48 4 -3 9 0 11 7 3 6 13 12 23 12 10 0
20 -6 23 -12 2 -7 8 -10 12 -6 5 5 3 26 -4 48 -17 56 -46 55 -61 -1z m40 6 c0
-8 -4 -15 -10 -15 -5 0 -10 7 -10 15 0 8 5 15 10 15 6 0 10 -7 10 -15z"/>
<path d="M2220 456 c0 -25 5 -46 10 -46 6 0 10 9 10 20 0 11 4 20 10 20 5 0
14 -9 20 -20 17 -31 25 -24 25 23 0 41 -1 42 -37 45 l-38 3 0 -45z m60 19 c0
-8 -9 -15 -20 -15 -11 0 -20 7 -20 15 0 8 9 15 20 15 11 0 20 -7 20 -15z"/>
<path d="M2320 455 l0 -45 38 1 c31 1 33 2 13 8 -31 8 -40 31 -12 31 12 0 21
5 21 10 0 6 -9 10 -20 10 -30 0 -24 18 8 23 22 3 20 4 -10 6 l-38 1 0 -45z"/>
<path d="M2531 453 c0 -39 2 -44 9 -25 12 27 27 28 35 2 11 -33 20 -23 22 25
1 45 1 45 -33 45 l-34 0 1 -47z m54 28 c3 -5 1 -13 -5 -16 -15 -9 -43 3 -35
15 8 13 32 13 40 1z"/>
<path d="M2630 455 c0 -44 1 -45 33 -44 27 1 29 2 9 7 -30 9 -33 26 -4 30 31
5 28 22 -5 22 -29 0 -22 15 12 23 13 3 9 5 -12 6 -33 1 -33 0 -33 -44z"/>
<path d="M2721 453 c1 -26 3 -41 6 -32 2 9 18 19 34 23 25 5 30 10 27 28 -2
18 -11 24 -35 26 l-33 3 1 -48z m49 22 c0 -8 -9 -15 -20 -15 -20 0 -26 11 -13
23 12 13 33 7 33 -8z"/>
<path d="M2810 455 c0 -25 5 -45 10 -45 6 0 10 9 10 20 0 11 5 20 11 20 6 0
13 -9 16 -20 3 -11 10 -20 15 -20 5 0 7 8 4 18 -3 9 -2 23 3 31 15 24 1 41
-35 41 -34 0 -34 -1 -34 -45z m58 23 c-7 -19 -38 -22 -38 -4 0 10 9 16 21 16
12 0 19 -5 17 -12z"/>
<path d="M2910 455 c0 -25 5 -45 10 -45 6 0 10 20 10 45 0 25 -4 45 -10 45 -5
0 -10 -20 -10 -45z"/>
<path d="M3160 455 c0 -25 5 -45 10 -45 6 0 10 9 10 20 0 11 4 20 10 20 5 0
14 -9 20 -20 6 -11 15 -20 21 -20 6 0 6 6 0 18 -7 13 -7 22 1 30 20 20 1 42
-37 42 -35 0 -35 0 -35 -45z m58 23 c-7 -19 -38 -22 -38 -4 0 10 9 16 21 16
12 0 19 -5 17 -12z"/>
<path d="M3260 455 l0 -45 38 1 c31 1 33 2 13 8 -31 8 -40 31 -12 31 12 0 21
5 21 10 0 6 -9 10 -20 10 -30 0 -24 18 8 23 22 3 20 4 -10 6 l-38 1 0 -45z"/>
<path d="M3550 455 c0 -25 5 -45 10 -45 6 0 10 17 10 38 l1 37 20 -38 c25 -48
43 -43 47 11 4 49 -15 57 -21 10 l-4 -33 -13 33 c-9 19 -22 32 -32 32 -15 0
-18 -9 -18 -45z"/>
<path d="M3660 455 l0 -46 38 3 c36 3 37 4 37 43 0 39 -1 40 -37 43 l-38 3 0
-46z m58 3 c-2 -21 -8 -33 -18 -33 -10 0 -16 12 -18 33 -3 27 0 32 18 32 18 0
21 -5 18 -32z"/>
<path d="M3773 455 c0 -27 2 -38 4 -22 2 15 2 37 0 50 -2 12 -4 0 -4 -28z"/>
<path d="M3813 493 c12 -3 17 -15 17 -44 0 -21 5 -39 10 -39 6 0 10 18 10 39
0 29 5 41 18 44 9 3 -3 5 -28 5 -25 0 -37 -2 -27 -5z"/>
<path d="M3903 455 c0 -27 2 -38 4 -22 2 15 2 37 0 50 -2 12 -4 0 -4 -28z"/>
<path d="M4050 455 c0 -51 20 -63 21 -12 l1 32 14 -32 c21 -50 44 -43 44 12 0
51 -20 63 -21 13 l0 -33 -16 33 c-24 47 -43 41 -43 -13z"/>
<path d="M4162 453 c1 -37 2 -40 5 -15 5 40 15 41 30 2 18 -48 43 -39 43 15 0
51 -20 63 -21 13 l0 -33 -16 33 c-25 48 -43 42 -41 -15z"/>
<path d="M4470 455 c0 -48 13 -60 24 -22 l7 22 16 -22 c22 -33 28 -29 30 22
l2 45 -39 0 -40 0 0 -45z m60 20 c0 -8 -9 -15 -20 -15 -11 0 -20 7 -20 15 0 8
9 15 20 15 11 0 20 -7 20 -15z"/>
<path d="M4570 455 l0 -45 38 1 c31 1 33 2 13 8 -35 9 -39 31 -6 31 15 0 24 4
20 10 -3 6 -15 10 -26 10 -29 0 -23 18 9 23 22 3 20 4 -10 6 l-38 1 0 -45z"/>
<path d="M4765 470 c8 -16 15 -36 15 -45 0 -8 5 -15 10 -15 6 0 10 10 10 23 0
12 7 33 16 45 17 25 3 30 -17 6 -11 -14 -13 -14 -21 0 -16 29 -29 16 -13 -14z"/>
<path d="M4940 455 c0 -44 1 -45 33 -44 29 0 30 1 10 9 -18 7 -23 17 -23 45 0
19 -4 35 -10 35 -5 0 -10 -20 -10 -45z"/>
<path d="M2450 450 c0 -5 5 -10 11 -10 5 0 7 5 4 10 -3 6 -8 10 -11 10 -2 0
-4 -4 -4 -10z"/>
<path d="M4395 450 c-3 -5 -1 -10 4 -10 6 0 11 5 11 10 0 6 -2 10 -4 10 -3 0
-8 -4 -11 -10z"/>
</g>
</svg>
