<svg xmlns="http://www.w3.org/2000/svg" fill="none" viewBox="0 0 44 44"><path fill="currentColor" d="m39.603 30.598-3.161-8.846 2.791-7.45q.058-.14.082-.288l.503-3.14a2.32 2.32 0 0 0-1.61-2.463l-9.34-3.078L23.42.56a2.19 2.19 0 0 0-1.631-.554 2.22 2.22 0 0 0-1.53.749.8.8 0 0 0-.153.174l-1.396 1.827-3.643 4.105-3.294-1.478a2.29 2.29 0 0 0-2.976 1.16.7.7 0 0 0-.051.133c-.11.295-.166.608-.164.923l.123 2.371-5.49-.472a2.23 2.23 0 0 0-2.371 1.478l-.667 1.785a2.237 2.237 0 0 0 1.026 2.853l6.352 3.304L9.32 28.998l-1.621 4.197a2.29 2.29 0 0 0 .062 1.837 2.23 2.23 0 0 0 1.364 1.16h.165l14.018 4.104c.232.073.474.11.718.113a2.31 2.31 0 0 0 2.104-1.406l1.518-3.51 5.131 1.478a1.55 1.55 0 0 0 1.447-.328l4.947-4.382a1.55 1.55 0 0 0 .43-1.662m-6.866 3.242-5.028-1.457a2.33 2.33 0 0 0-2.658 1.324l-1.519 3.52-12.653-3.735 1.416-3.684c.142-.392.17-.815.082-1.222L10.5 18.006a2.35 2.35 0 0 0-1.128-1.621l-.093-.052-5.962-3.078.226-.647 5.829.503h.349a2.35 2.35 0 0 0 1.61-.841c.362-.436.535-.997.483-1.56l-.092-1.97 2.617 1.18h.092a2.32 2.32 0 0 0 2.565-.616l3.992-4.505q.087-.084.154-.185l.893-1.221 4.823 4.238c.184.204.412.362.667.462q.095.053.195.092l8.928 2.966-.37 2.248-2.914 7.84c-.123.33-.123.695 0 1.026l2.997 8.404zM41.286 34.477c-1.263 0-2.289 2.186-2.31 4.823s1.027 4.7 2.258 4.7 2.289-2.114 2.31-4.751-.976-4.772-2.258-4.772"/></svg>