<svg xmlns="http://www.w3.org/2000/svg" fill="none" viewBox="0 0 44 44"><path fill="currentColor" d="M18.05 6.48h5.08a.75.75 0 0 0 0-1.5h-5.08a.75.75 0 1 0 0 1.5M20.65 28.64c2.57 0 4.58-1 4.59-2.19s-2.07-2.24-4.63-2.26-4.65 1-4.66 2.2 2.14 2.23 4.7 2.25"/><path fill="currentColor" d="M37.42 28.5H35a3.5 3.5 0 0 0-2.47 1c-.42-.09-.88-.17-1.34-.23V3.84A3.84 3.84 0 0 0 27.37 0H13.81A3.84 3.84 0 0 0 10 3.84v24.7l-.87-.46a4.5 4.5 0 0 0-3.22-.27 4 4 0 0 0-2.13 1.55A3.9 3.9 0 0 0 3.1 32a3.66 3.66 0 0 0 1.6 2.59l1.89 1.29c1.69 1.17 3.79 2.63 5.9 4 1.78 1.14 3.23 2 4.44 2.63a9.1 9.1 0 0 0 4 1.32 34 34 0 0 0 5.36-.52 24.7 24.7 0 0 1 6.16-.4A3.47 3.47 0 0 0 35 44h2.4a3.5 3.5 0 0 0 3.5-3.5V32a3.5 3.5 0 0 0-3.48-3.5M13 3.84a.83.83 0 0 1 .81-.84h13.56a.84.84 0 0 1 .84.83v25.36a16 16 0 0 0-3.05.63l-.19.05a8 8 0 0 1-2.26.45l-3.57-.09a3.9 3.9 0 0 0-3.39 1.33L13 30.11zm12.9 36.48c-1.624.295-3.27.459-4.92.49a7.1 7.1 0 0 1-2.65-1c-1.13-.58-2.5-1.39-4.2-2.48C12 36 10 34.57 8.3 33.42c-.76-.52-1.41-1-1.92-1.32a.66.66 0 0 1-.3-.46.9.9 0 0 1 .16-.59 1 1 0 0 1 .53-.37 1.4 1.4 0 0 1 1 .09l7.17 3.75a3.76 3.76 0 0 0 3.17 3.14h.1l5.11.38h.11a1.5 1.5 0 0 0 .11-3l-5.05-.37a.77.77 0 0 1-.61-.85c.07-.45.57-.66 1.09-.61l3.71.1a10.6 10.6 0 0 0 3.13-.57H26a11.5 11.5 0 0 1 3.51-.57h.16q.934.046 1.85.24v7.45a31.6 31.6 0 0 0-5.64.46zm12 .17a.51.51 0 0 1-.5.5H35a.51.51 0 0 1-.5-.5V32a.51.51 0 0 1 .5-.5h2.4a.51.51 0 0 1 .5.5z"/></svg>