<svg xmlns="http://www.w3.org/2000/svg" fill="none" viewBox="0 0 44 44"><path fill="currentColor" d="M30.6 0H13.4A4.37 4.37 0 0 0 9 4.37v35.26A4.37 4.37 0 0 0 13.4 44h17.2a4.37 4.37 0 0 0 4.4-4.37V4.37A4.37 4.37 0 0 0 30.6 0M32 39.63A1.36 1.36 0 0 1 30.6 41H13.4a1.36 1.36 0 0 1-1.4-1.37V4.37A1.36 1.36 0 0 1 13.4 3h17.2A1.36 1.36 0 0 1 32 4.37z"/><path fill="currentColor" d="M18.74 7.07h6.52a.75.75 0 1 0 0-1.5h-6.52a.75.75 0 1 0 0 1.5M22 33.42c-2.56 0-4.65 1-4.65 2.2s2.13 2.23 4.7 2.25 4.58-1 4.58-2.19-2.05-2.24-4.63-2.26"/></svg>