<svg xmlns="http://www.w3.org/2000/svg" fill="none" viewBox="0 0 44 44"><path fill="currentColor" d="M17.223 12.266H11.73a.811.811 0 0 0 0 1.622h5.494a.811.811 0 1 0 0-1.623M9.425 35.369c0 1.33 2.314 2.412 5.094 2.433 2.78.022 4.943-1.081 4.954-2.368.01-1.287-2.239-2.423-5.008-2.445s-5.04 1.05-5.04 2.38"/><path fill="currentColor" d="M24.34 19.62a1.623 1.623 0 0 0-1.622 1.623v18.604a.92.92 0 0 1-.909.908H7.143a.91.91 0 0 1-.898-.908V10.978a.9.9 0 0 1 .898-.876h9.734a1.622 1.622 0 0 0 0-3.245H7.143A4.153 4.153 0 0 0 3 11v28.847A4.153 4.153 0 0 0 7.143 44h14.666a4.153 4.153 0 0 0 4.154-4.153V21.243a1.62 1.62 0 0 0-1.623-1.622"/><path fill="currentColor" d="M28.234 10.838 26.006 13V1.622a1.622 1.622 0 1 0-3.245 0v11.282l-2.163-2.164a1.62 1.62 0 0 0-2.379-.108 1.623 1.623 0 0 0 .075 2.38l4.76 4.824a1.61 1.61 0 0 0 2.433.195l4.964-4.9a1.622 1.622 0 0 0-2.282-2.304z"/><path fill="currentColor" d="M41.343 5.484 36.584.66A1.61 1.61 0 0 0 35.286 0a1.6 1.6 0 0 0-1.136.476l-4.997 4.889a1.624 1.624 0 0 0 1.13 2.782 1.63 1.63 0 0 0 1.153-.468l2.228-2.163v11.368a1.623 1.623 0 0 0 3.245 0V5.614l2.163 2.163a1.6 1.6 0 0 0 1.146.487c.43-.004.84-.175 1.147-.476a1.62 1.62 0 0 0-.022-2.304"/></svg>