<svg xmlns="http://www.w3.org/2000/svg" fill="none" viewBox="0 0 44 44"><path fill="currentColor" d="M12.4 34c-2.56 0-4.65 1-4.66 2.2s2.14 2.24 4.71 2.25 4.57-1 4.58-2.19S15 34 12.4 34"/><path fill="currentColor" d="m41.65 3.64-1.51-1.51a1.52 1.52 0 0 0-1.77-.27L35 3.66a1.5 1.5 0 0 0-.55.51l-.95 1.39-6.37 4.9a8.11 8.11 0 0 0-1.69-7.82 8.2 8.2 0 0 0-9-2.08A1.5 1.5 0 0 0 15.81 3l3.66 4-1.9 1.71-3.63-4a1.5 1.5 0 0 0-2.46.35 8.5 8.5 0 0 0-.79 4.82h-5a3.82 3.82 0 0 0-3.82 3.82v26.48A3.83 3.83 0 0 0 5.73 44h13.46A3.83 3.83 0 0 0 23 40.18V26.4l3.42-3.81 5.91 6.46a4.07 4.07 0 0 0 2.87 1.37h.22a4.17 4.17 0 0 0 3.08-7l-6.22-6.81 5.89-6.36 1.43-.94a1.5 1.5 0 0 0 .51-.55l1.8-3.4a1.52 1.52 0 0 0-.26-1.72m-21.12 21A12.4 12.4 0 0 1 17.47 27c-.47.18-1 .27-1.83-.66-1.12-1.19-1-1.94 2.15-4.86l9.08-6.32 1.1 1.2zm-4.18-12.8a1.49 1.49 0 0 0 2.12.11l4.12-3.72a1.46 1.46 0 0 0 .49-1 1.55 1.55 0 0 0-.38-1.09L19.91 3a5.06 5.06 0 0 1 3.31 1.62 5.23 5.23 0 0 1 .69 5.87 1.49 1.49 0 0 0 .23 1.67l.69.75-2 1.38-.31-.42a1.5 1.5 0 0 0-1.76-.51 5.21 5.21 0 0 1-5.88-1.23 5 5 0 0 1-1.28-3.34zM19.19 41H5.73a.82.82 0 0 1-.82-.82V13.69a.82.82 0 0 1 .82-.82h6q.403.699.94 1.3.308.342.66.64H9.94a.75.75 0 1 0 0 1.5h5a.74.74 0 0 0 .45-.17 8.3 8.3 0 0 0 3.9.63L16 19.09l-.16.14a14.6 14.6 0 0 0-3.35 3.91 4.44 4.44 0 0 0 1 5.27 4.7 4.7 0 0 0 3.5 1.72 4.6 4.6 0 0 0 1.6-.31A7.3 7.3 0 0 0 20 29v11.18a.82.82 0 0 1-.81.82m17-13.87a1.16 1.16 0 0 1-.84.3 1.2 1.2 0 0 1-.81-.39l-6.12-6.69L30 18.61l6.28 6.88a1.17 1.17 0 0 1-.07 1.64zm-5.93-12.69-1.4-1.53 5.61-4.31.63.62zm7.38-7.37-.27.18-.84-.83.18-.28 2-1z"/></svg>