<svg xmlns="http://www.w3.org/2000/svg" fill="none" viewBox="0 0 44 44"><path fill="currentColor" d="M15.204 8.286a.744.744 0 0 0 .968 0 .744.744 0 0 0 .204-.937L12.83.379a.764.764 0 0 0-1.213-.143L9.641 2.52a.764.764 0 0 0 .091 1.12zm-3.21-6.185 1.274 2.558-1.967-1.733zM17.354 6.126q.141.06.296.06c.2.002.394-.074.54-.213L22 2.264a.79.79 0 0 0 .204-.754.79.79 0 0 0-.57-.54l-3.71-.866a.764.764 0 0 0-.937.733l-.102 4.576a.79.79 0 0 0 .469.713m1.141-4.32 1.437.336-1.478 1.436zM28.257 14.043l-4.901-1.66a.754.754 0 0 0-.968.468.774.774 0 0 0 .438.978l4.9 1.66q.124.024.245 0a.765.765 0 0 0 .245-1.487zM19.524 31.752c-2.466-.856-4.799-.59-5.217.591s1.386 2.884 3.811 3.72c2.425.835 4.728.57 5.095-.612S22 32.608 19.524 31.752"/><path fill="currentColor" d="M33.973 10.63 20.89 6.187a1.54 1.54 0 0 0-1.376.204c-.662.479-.805.58-.835 6.47l-1.142-1.528a1.52 1.52 0 0 0-1.467-.56 1.54 1.54 0 0 0-1.212 1.018l-7.663 22.6a3.903 3.903 0 0 0 2.446 4.912l13.083 4.483a3.8 3.8 0 0 0 1.253.214 4 4 0 0 0 1.732-.408 3.87 3.87 0 0 0 1.967-2.251l8.742-25.75a3.913 3.913 0 0 0-2.445-4.961m-.448 3.984-8.743 25.708a.85.85 0 0 1-.428.489.86.86 0 0 1-.652 0L10.598 36.45a.845.845 0 0 1-.53-1.08l6.736-19.88 2.15 2.873a1.53 1.53 0 0 0 2.75-.907c0-2.812 0-5.848.072-7.733l11.209 3.81a.85.85 0 0 1 .54 1.08"/></svg>