<svg xmlns="http://www.w3.org/2000/svg" fill="none" viewBox="0 0 44 44"><path fill="currentColor" d="M10.137 15.963h5.116a.756.756 0 0 0 0-1.51h-5.116a.755.755 0 0 0 0 1.51M12.715 33.768c-2.588 0-4.693 1.007-4.693 2.216 0 1.208 2.155 2.246 4.733 2.266 2.579.02 4.613-1.007 4.623-2.206.01-1.198-2.085-2.256-4.663-2.276"/><path fill="currentColor" d="M31.437 24.02a10.6 10.6 0 0 1-7.765-1.541 1.2 1.2 0 0 0-.282-.141v-9.064a3.857 3.857 0 0 0-3.565-3.826 9.7 9.7 0 0 1 .826-1.541l.221-.302a1.51 1.51 0 0 0 1.38 1.309h.191a1.51 1.51 0 0 0 1.501-1.36l.322-3.676a1.51 1.51 0 0 0-.916-1.53h-.403l-3.696-.484a1.518 1.518 0 0 0-.302 3.022h.231a13 13 0 0 0-1.057 1.38c-.638.98-1.146 2.04-1.51 3.151H5.867A3.877 3.877 0 0 0 2 13.274v26.859A3.877 3.877 0 0 0 5.867 44h13.656a3.867 3.867 0 0 0 3.867-3.867v-14.34c1.083.547 2.235.947 3.424 1.188 1.715.342 3.481.342 5.197 0a1.511 1.511 0 1 0-.575-2.961M20.359 40.133a.846.846 0 0 1-.846.846H5.867a.846.846 0 0 1-.846-.846V13.274a.846.846 0 0 1 .846-.835h13.656a.846.846 0 0 1 .846.835zM40.692 20.918a13.55 13.55 0 0 0-.121-14.915 13.52 13.52 0 0 0-8.6-5.75 13.4 13.4 0 0 0-5.187 0 1.537 1.537 0 1 0 .564 3.021 10.49 10.49 0 0 1 10.735 4.411 10.6 10.6 0 0 1 1.591 3.857 10.6 10.6 0 0 1-1.54 7.765c-.071.11-.151.201-.222.312a1.51 1.51 0 0 0-3.021 0l-.363 3.746a1.51 1.51 0 0 0 1.118 1.601h.242l3.655.353h.151a1.512 1.512 0 1 0 .151-3.021h-.231q.563-.618 1.047-1.3z"/></svg>