<svg xmlns="http://www.w3.org/2000/svg" fill="none" viewBox="0 0 44 44"><path fill="currentColor" d="M31.663 14.737q.19.022.38 0 .226-.006.441-.07l.13-.06.18-.07.11-.08.07-.05q.166-.132.292-.301a.3.3 0 0 0 0-.07q.125-.186.19-.401l1.983-7.203a1.505 1.505 0 0 0-2.905-.781l-1.002 3.746-3.686-6.391A6.06 6.06 0 0 0 22.546 0a6.06 6.06 0 0 0-5.3 3.056l-5.5 9.527a1.503 1.503 0 1 0 2.605 1.503l5.5-9.527a3.116 3.116 0 0 1 5.39 0l3.687 6.391-3.737-1.002a1.523 1.523 0 0 0-1.843 1.072 1.49 1.49 0 0 0 1.061 1.834l7.244 1.943zM43.153 29.554l-5.51-9.537a1.503 1.503 0 1 0-2.604 1.502l5.5 9.538a3.106 3.106 0 0 1-2.695 4.658H30.48l2.735-2.735a1.513 1.513 0 0 0-.486-2.452 1.49 1.49 0 0 0-1.637.328l-5.31 5.27q-.099.108-.18.23a.3.3 0 0 0 0 .07 1 1 0 0 0-.1.19v.09a1 1 0 0 0-.05.191 1.4 1.4 0 0 0 0 .29q-.015.15 0 .301.017.093.05.18v.1q.043.094.1.181v.08q.081.118.18.22l5.31 5.31a1.5 1.5 0 0 0 1.061.441 1.513 1.513 0 0 0 1.062-2.575L30.48 38.69h7.374a6.112 6.112 0 0 0 5.3-9.166zM7.218 35.715a3.106 3.106 0 0 1-2.695-4.659l3.687-6.391 1.002 3.737a1.5 1.5 0 0 0 1.453 1.112q.195.03.39 0a1.505 1.505 0 0 0 1.062-1.844l-1.923-7.293v-.1c0-.05 0-.11-.07-.17a1 1 0 0 0-.1-.16l-.03-.09-.14-.151-.061-.06a1.4 1.4 0 0 0-.25-.18h-.08l-.18-.09-.291-.08H8.65a1 1 0 0 0-.24 0h-.06l-7.234 1.963a1.503 1.503 0 0 0 .772 2.905l3.736-1.002-3.646 6.392a6.111 6.111 0 0 0 5.3 9.166h11.02a1.503 1.503 0 0 0 0-3.005z"/></svg>