<svg xmlns="http://www.w3.org/2000/svg" fill="none" viewBox="0 0 44 44"><path fill="currentColor" d="M37.44 10.18a3.05 3.05 0 0 0-.53-1.74l-4.85-7.12A3 3 0 0 0 29.57 0H11.39a4.9 4.9 0 0 0-4.85 4.94v34.12A4.9 4.9 0 0 0 11.39 44h21.22a4.77 4.77 0 0 0 3.44-1.46 5 5 0 0 0 1.41-3.48zM33.9 40.45a1.8 1.8 0 0 1-1.29.55H11.39a1.9 1.9 0 0 1-1.85-1.94V4.94A1.9 1.9 0 0 1 11.39 3h18.19l4.86 7.17v28.88a2 2 0 0 1-.54 1.4"/><path fill="currentColor" d="M30.36 16.47H13.64a1.5 1.5 0 0 0-1.5 1.5V37a1.5 1.5 0 0 0 1.5 1.5h16.72a1.5 1.5 0 0 0 1.5-1.5V18a1.5 1.5 0 0 0-1.5-1.53m-1.5 19h-2.57V33a1.5 1.5 0 0 0-3 0v2.5h-2.58V33a1.5 1.5 0 0 0-3 0v2.5h-2.57v-16h2.57V22a1.5 1.5 0 1 0 3 0v-2.53h2.58V22a1.5 1.5 0 1 0 3 0v-2.53h2.57z"/><path fill="currentColor" d="M22 25.26c-2.57 0-4.65 1-4.66 2.2s2.14 2.24 4.71 2.25 4.57-1 4.58-2.19-2.06-2.24-4.63-2.26"/></svg>