<svg xmlns="http://www.w3.org/2000/svg" fill="none" viewBox="0 0 44 44"><path fill="currentColor" d="M22 25.107a2.005 2.005 0 0 1-2.175-1.694h2.786V22.05h-2.916a3 3 0 0 1 0-.44q-.015-.227 0-.452h2.956v-1.353h-2.786A2.004 2.004 0 0 1 22 18.111a1.874 1.874 0 0 1 2.005 1.704l2.616-.561A4.25 4.25 0 0 0 22 15.706a4.84 4.84 0 0 0-5.011 4.099h-1.303v1.353h1.212q-.015.225 0 .451a3 3 0 0 0 0 .441h-1.212v1.363h1.353a4.59 4.59 0 0 0 4.89 4.09q4.01 0 4.822-3.549l-2.636-.56A1.874 1.874 0 0 1 22 25.106M12.98 13.05c.881-.872.07-3.097-1.744-4.932-1.815-1.834-3.89-2.565-4.771-1.693-.882.872-.12 3.006 1.684 4.88s3.989 2.607 4.83 1.745M31.02 30.95c-.872.862-.12 3.007 1.684 4.881s4.01 2.606 4.861 1.744c.852-.862.07-3.107-1.744-4.93-1.814-1.825-3.949-2.567-4.8-1.695M35.882 11.266c1.834-1.804 2.565-3.92 1.693-4.801s-3.007-.12-4.88 1.684c-1.875 1.804-2.607 4.009-1.745 4.86.862.852 3.077.07 4.932-1.743M8.169 32.674c-1.825 1.804-2.606 4.01-1.744 4.861.862.852 3.107.07 4.93-1.744 1.825-1.814 2.567-3.919 1.695-4.8-.872-.883-3.077-.12-4.881 1.683M39.36 19.775c-2.576 0-4.661 1.002-4.671 2.195s2.145 2.245 4.71 2.255S43.99 23.223 44 22.03c.01-1.193-2.075-2.245-4.64-2.255M9.311 22c0-1.233-2.065-2.245-4.64-2.255C2.095 19.735.01 20.747 0 22c-.01 1.253 2.145 2.245 4.72 2.255 2.577.01 4.581-.992 4.591-2.255M22 34.689c-1.233 0-2.245 2.145-2.255 4.71S20.747 43.99 21.94 44c1.193.01 2.245-2.075 2.255-4.64.01-2.566-.942-4.661-2.195-4.671M22 9.311c1.233 0 2.245-2.065 2.255-4.64C24.265 2.095 23.253.01 22 0c-1.253-.01-2.245 2.145-2.255 4.72-.01 2.577.992 4.581 2.255 4.591"/><path fill="currentColor" d="M21.87 10.123a11.486 11.486 0 1 0 11.486 11.486A11.496 11.496 0 0 0 21.87 10.123m0 19.955a8.48 8.48 0 1 1 0-16.958 8.48 8.48 0 0 1 0 16.958"/></svg>