<svg xmlns="http://www.w3.org/2000/svg" fill="none" viewBox="0 0 44 44"><path fill="currentColor" d="M17.69 31.77c-2.57 0-4.65 1-4.66 2.19s2.14 2.24 4.7 2.25 4.58-1 4.59-2.19-2.07-2.24-4.63-2.25"/><path fill="currentColor" d="M43.91 31.57c-2.51-6.79-5.86-11.84-9.77-14.75A10.218 10.218 0 0 0 27.68.173 10.22 10.22 0 0 0 17 6a10.21 10.21 0 0 0-7.17 16.8C6 25.68 2.66 30.72.1 37.49a1.5 1.5 0 0 0 .07 1.23C.46 39.26 3.36 44 17.69 44s17.2-4.75 17.48-5.29a1.47 1.47 0 0 0 .08-1.21c0-.07 0-.14-.08-.2 6.83-1.38 8.49-4.18 8.66-4.52a1.5 1.5 0 0 0 .08-1.21M26.33 3a7.23 7.23 0 0 1 1.5 14.3q.065-.568.07-1.14a10.23 10.23 0 0 0-7.6-9.87A7.2 7.2 0 0 1 26.33 3m-8.66 5.93a7.23 7.23 0 1 1 0 14.46 7.23 7.23 0 0 1 0-14.46m0 32.07c-9.8 0-13.4-2.3-14.47-3.26 2.41-6.07 5.56-10.6 9-13a10.16 10.16 0 0 0 11 0c3.46 2.35 6.61 6.88 9 12.94C31 38.71 27.45 41 17.69 41zM34 34.47c-2.34-5.27-5.24-9.26-8.54-11.72A10.2 10.2 0 0 0 27 20.42c1.728-.1 3.4-.64 4.86-1.57 3.46 2.35 6.6 6.88 9 12.94-.81.67-2.69 1.93-6.86 2.68"/></svg>